<svg width="19" height="19" viewBox="0 0 19 19" fill="none" xmlns="http://www.w3.org/2000/svg">
<path d="M19 9.5C19 4.25273 14.7473 0 9.5 0C4.25273 0 0 4.25273 0 9.5C0 14.7473 4.25273 19 9.5 19C9.55566 19 9.61133 19 9.66699 18.9963V11.6041H7.62598V9.22539H9.66699V7.47383C9.66699 5.44394 10.9064 4.33809 12.7174 4.33809C13.5857 4.33809 14.3316 4.40117 14.5469 4.43086V6.55352H13.3C12.3166 6.55352 12.1236 7.02109 12.1236 7.70762V9.22168H14.4801L14.1721 11.6004H12.1236V18.6326C16.0943 17.4934 19 13.8381 19 9.5Z" fill="white"/>
</svg>
