<svg width="21" height="21" viewBox="0 0 21 21" fill="none" xmlns="http://www.w3.org/2000/svg">
<g clip-path="url(#clip0)">
<path d="M19.0949 7.875H17.1812V9.77988H15.2764V11.6935H17.1812V13.5984H19.0949V11.6935H20.9997V9.77988H19.0949V7.875Z" fill="white"/>
<path d="M6.5625 17.0625C10.3495 17.0625 12.8651 14.4042 12.8651 10.6522C12.8651 10.2226 12.8205 9.891 12.7584 9.56025H6.56337V11.816H10.2882C10.136 12.7741 9.16037 14.6449 6.56337 14.6449C4.326 14.6449 2.499 12.7916 2.499 10.5C2.499 8.20837 4.32512 6.35425 6.56337 6.35425C7.8435 6.35425 8.694 6.90025 9.17788 7.36575L10.9594 5.656C9.81225 4.58237 8.33525 3.9375 6.5625 3.9375C2.9365 3.9375 0 6.874 0 10.5C0 14.126 2.9365 17.0625 6.5625 17.0625Z" fill="white"/>
</g>
<defs>
<clipPath id="clip0">
<rect width="21" height="21" fill="white"/>
</clipPath>
</defs>
</svg>
