<svg width="19" height="19" viewBox="0 0 19 19" fill="none" xmlns="http://www.w3.org/2000/svg">
<path d="M9.5 0C4.2541 0 0 4.2541 0 9.5C0 14.7459 4.2541 19 9.5 19C14.7459 19 19 14.7459 19 9.5C19 4.2541 14.7459 0 9.5 0ZM6.73941 14.3613H4.42573V7.40057H6.73941V14.3613ZM5.58264 6.45007H5.56757C4.79117 6.45007 4.28903 5.91561 4.28903 5.24764C4.28903 4.5646 4.80653 4.04492 5.59801 4.04492C6.38948 4.04492 6.87654 4.5646 6.89162 5.24764C6.89162 5.91561 6.38948 6.45007 5.58264 6.45007ZM15.0821 14.3613H12.7687V10.6375C12.7687 9.70164 12.4337 9.06339 11.5965 9.06339C10.9574 9.06339 10.5768 9.49391 10.4095 9.90951C10.3483 10.0582 10.3334 10.2661 10.3334 10.4741V14.3613H8.01983C8.01983 14.3613 8.05013 8.0536 8.01983 7.40057H10.3334V8.38614C10.6408 7.91183 11.1909 7.2372 12.4184 7.2372C13.9407 7.2372 15.0821 8.23205 15.0821 10.37V14.3613Z" fill="white"/>
</svg>
