<svg width="632" height="551" viewBox="0 0 632 551" fill="none" xmlns="http://www.w3.org/2000/svg">
<g style="mix-blend-mode:multiply" opacity="0.19">
<path d="M580.259 300.822C580.259 300.822 234.361 352.989 141.518 374.386C130.169 377.035 110.147 382.581 78.9343 387.173C38.925 393.046 21.093 391.332 20.3776 395.916C19.2118 403.748 68.6714 422.337 121.328 428.21C151.304 431.548 179.064 430.382 179.196 432.916C179.364 436.246 131.414 439.813 131.423 445.703C131.432 451.593 179.408 452.212 180.538 461.846C182.005 474.059 106.049 483.49 105.854 500.189C105.687 516.084 180.08 552.689 245.967 548.83C273.037 547.25 317.188 528.624 365.579 497.504C388.41 482.819 399.2 487.676 422.464 482.704C454.206 475.922 475.577 500.838 503.115 510.225C587.152 538.863 683.56 482.572 688.551 455.788C691.615 439.363 668.489 437.777 671.43 418.977C676.217 388.316 746.237 383.564 746.237 354.635C746.237 331.736 673.031 301.034 580.259 300.822Z" fill="#6265D2"/>
</g>
<g style="mix-blend-mode:multiply" opacity="0.19">
<path d="M113.379 394.847C99.5479 395.147 66.4099 395.686 65.827 401.126C65.2353 406.724 98.9914 417.471 132.668 420.862C191.128 426.743 241.179 409.63 243.069 415.926C244.191 419.741 225.679 425.189 226.023 433.87C226.412 444.758 256.193 451.761 265.909 454.083C310.431 464.566 345.397 458.031 385.681 450.048C408.741 445.473 423.658 440.811 424.259 433.896C424.877 426.47 408.361 422.62 409.006 417.303C410.349 405.523 493.944 400.172 562.428 400.26C576.392 400.26 613.292 400.552 654.388 382.766C668.051 376.85 674.878 373.936 674.578 371.101C672.255 349.245 295.408 390.864 113.379 394.847Z" fill="#6265D2"/>
</g>
<g style="mix-blend-mode:multiply" opacity="0.19">
<path d="M246.17 476.028C238.998 475.949 222.394 478.677 189.194 484.108C147.913 490.864 140.379 493.354 140.299 496.215C140.202 499.659 150.898 501.69 178.101 510.229C204.65 518.566 209.852 521.489 218.799 524.023C263.313 536.651 322.435 517.753 322.876 503.395C323.256 491.173 281.507 476.443 246.17 476.028Z" fill="#6265D2"/>
</g>
<g style="mix-blend-mode:multiply" opacity="0.19">
<path d="M506.345 462.552C498.731 464.53 493.203 466.341 493.282 468.266C493.423 471.516 509.498 474.447 524.194 473.917C542.194 473.22 542.45 467.842 564.212 463.948C585.074 460.212 592.802 463.727 614.07 457.201C617.602 456.115 630.206 452.247 629.826 450.136C629.349 447.487 608.214 451.602 564.751 453.607C545.027 454.578 525.455 457.576 506.345 462.552Z" fill="#6265D2"/>
</g>
<path d="M112.295 396.174C77.7409 415.27 40.0773 385.99 33.9349 381.229C25.6565 374.864 14.0161 365.788 13.3589 352.828C12.5248 336.343 30.2317 328.259 26.8824 314.638C24.3547 304.454 13.5864 305.6 5.97788 293.302C-2.51538 279.528 -2.51538 256.181 9.59257 245.513C26.023 231.103 60.4384 243.4 69.6268 261.706C75.2131 272.87 69.8416 283.118 77.0078 288.325C84.6922 293.913 94.146 284.506 108.744 287.052C125.288 290.043 135.083 306.147 136.688 308.859C151.994 334.115 143.298 379.078 112.295 396.174Z" fill="url(#paint0_linear)"/>
<g style="mix-blend-mode:soft-light" opacity="0.5">
<path d="M16.4164 246.694C10.6281 247.289 5.7068 259.179 6.48453 268.562C7.50449 280.782 18.3671 290.899 29.4337 301.144C36.7137 307.931 38.5496 308.108 39.3656 311.438C42.145 322.835 23.1354 330.255 22.09 345.742C21.427 355.872 28.7197 363.761 34.61 370.181C57.0747 394.607 97.0827 399.52 101.099 391.619C102.782 388.301 96.611 385.642 89.8793 373.182C77.525 350.389 86.1691 336.979 75.1918 317.871C69.327 307.652 66.6368 311.097 52.7526 296.003C27.8527 269.031 25.0606 245.795 16.4164 246.694Z" fill="#F4F6F9"/>
</g>
<path d="M125.442 403.625C104.065 409.206 86.6 392.007 73.7031 379.247C66.1315 371.776 57.7902 363.582 58.7493 353.612C59.7336 343.338 69.7028 340.179 69.463 329.296C69.2737 320.734 63.0398 319.707 62.3331 310.473C61.5129 299.691 69.7154 297.028 71.3559 286.373C73.804 270.543 57.5631 264.899 57.6262 249.462C57.7019 234.431 73.2362 215.215 93.3386 214.644C114.867 214.099 130.578 235.357 131.196 250.832C131.676 262.096 124.003 266.484 126.843 277.202C129.859 288.618 139.613 287.705 143.954 299.374C148.737 312.236 138.629 318.007 141.733 333.939C144.686 349.058 154.921 349.616 156.637 361.844C158.896 377.775 144.484 398.666 125.442 403.625Z" fill="url(#paint1_linear)"/>
<g style="mix-blend-mode:soft-light">
<path d="M91.5932 223.342C98.7884 225.231 101.081 244.893 99.5865 258.762C97.775 275.622 90.8838 278.525 92.8853 289.668C95.2921 303.055 106.009 303.195 110.455 317.621C114.484 330.691 107.098 335.191 106.845 353.383C106.465 380.372 122.401 393.328 117.524 398.019C110.861 404.421 73.9852 387.117 71.9204 365.654C70.9197 355.348 78.5582 350.543 76.5821 335.825C75.0747 324.606 70.1596 323.77 70.0076 314.072C69.7923 300.951 78.7103 298.656 79.1916 286.347C79.7363 272.783 69.0702 270.247 68.3355 256.784C67.3981 239.531 83.7646 221.238 91.5932 223.342Z" fill="#FFB799"/>
</g>
<path d="M117.774 393.695C114.461 392.343 90.0596 381.917 83.2827 356.162C82.5368 353.319 76.3541 329.813 88.8838 316.671C101.704 303.25 124.627 310.693 129.684 298.46C131.505 294.088 128.622 293.013 129.229 282.032C129.735 272.996 130.266 263.644 137.043 257.578C143.82 251.512 155.692 249.996 164.011 255.051C172.33 260.106 174.214 269.521 174.821 272.452C178.779 291.409 163.796 301.721 169.157 312.172C173.747 321.144 186.137 316.241 194.558 325.681C204.546 336.89 201.132 359.524 192.029 373.703C177.249 396.766 143.137 404.045 117.774 393.695Z" fill="url(#paint2_linear)"/>
<g style="mix-blend-mode:soft-light" opacity="0.5">
<path d="M152.595 260.546C163.001 266.486 155.244 297.476 153.862 302.654C148.894 321.575 143.9 321.398 138.83 337.895C129.679 367.744 140.313 386.932 131.973 391.196C124.165 395.168 109.044 381.335 101.553 370.992C93.7074 360.269 83.2887 338.593 91.6794 327.172C99.8927 315.979 118.233 325.344 129.438 311.702C135.015 304.913 136.282 295.534 137.169 288.922C139.058 274.963 135.293 266.981 140.604 262.272C143.634 259.557 149.046 258.516 152.595 260.546Z" fill="#F4F6F9"/>
</g>
<path d="M590.462 147.034L578.032 74.8706L550.43 77.2554C548.115 76.8869 543.713 78.9589 542.674 81.0587L506.939 153.07C506.695 153.592 506.589 154.167 506.63 154.741C506.67 155.315 506.856 155.87 507.171 156.353C507.485 156.836 507.917 157.231 508.427 157.502C508.937 157.773 509.507 157.911 510.085 157.902L520.255 157.679V326.001C520.256 326.709 520.404 327.409 520.692 328.056C520.979 328.703 521.399 329.283 521.924 329.76C522.449 330.236 523.068 330.598 523.742 330.822C524.415 331.047 525.128 331.129 525.835 331.063L550.417 336.917C553.374 336.723 581.178 325.097 581.178 322.142V151.596L587.498 151.651C588.048 151.659 588.592 151.526 589.076 151.266C589.561 151.006 589.971 150.627 590.268 150.164C590.565 149.702 590.738 149.172 590.772 148.625C590.806 148.077 590.7 147.53 590.462 147.034Z" fill="#41AC97"/>
<path style="mix-blend-mode:multiply" opacity="0.3" d="M547.291 156.76L520.647 157.13V325.968C520.648 326.678 520.795 327.379 521.078 328.029C521.36 328.678 521.773 329.26 522.29 329.738C522.807 330.215 523.416 330.578 524.078 330.804C524.741 331.029 525.442 331.111 526.138 331.045L550.324 336.917C551.519 336.833 556.858 334.825 562.726 332.251L547.291 156.76Z" fill="url(#paint3_linear)"/>
<path d="M617.342 152.47L581.085 75.7256C579.871 73.1545 576.204 72.9942 574.998 75.4608L537.346 151.592C537.095 152.117 536.982 152.697 537.018 153.277C537.055 153.858 537.24 154.419 537.555 154.908C537.87 155.397 538.306 155.797 538.819 156.071C539.333 156.344 539.908 156.481 540.49 156.469L547.17 156.525V331.816C547.171 332.526 547.32 333.227 547.607 333.876C547.894 334.525 548.314 335.107 548.839 335.585C549.363 336.063 549.982 336.426 550.655 336.652C551.328 336.878 552.041 336.961 552.748 336.896L602.728 333.614C604.164 333.506 605.507 332.866 606.496 331.82C607.484 330.773 608.045 329.395 608.069 327.956V157.041L614.344 157.097C614.898 157.112 615.446 156.985 615.937 156.727C616.427 156.47 616.843 156.09 617.144 155.625C617.445 155.161 617.622 154.626 617.656 154.073C617.691 153.521 617.583 152.969 617.342 152.47Z" fill="#75D0BE"/>
<path d="M472.893 341.597L447.983 335.353C444.866 335.561 442.334 333.348 442.334 330.414V195.135C442.388 193.685 443.01 192.314 444.066 191.315C445.122 190.317 446.528 189.771 447.983 189.793L501.672 189.516C504.649 189.516 529.998 191.264 529.998 191.264L507.042 326.314C507.056 329.144 472.893 341.597 472.893 341.597Z" fill="url(#paint4_linear)"/>
<path d="M528.15 338.058L474.835 341.584C471.733 341.786 469.218 339.567 469.218 336.625V196.321C469.272 194.866 469.89 193.49 470.94 192.489C471.99 191.488 473.389 190.941 474.835 190.966L528.15 190.687C528.839 190.67 529.525 190.79 530.167 191.04C530.81 191.29 531.397 191.666 531.895 192.146C532.392 192.625 532.791 193.2 533.067 193.835C533.344 194.47 533.492 195.154 533.505 195.848V332.515C533.459 333.944 532.885 335.305 531.894 336.331C530.904 337.356 529.569 337.972 528.15 338.058Z" fill="#77D0BE"/>
<path d="M389.916 347.446L364.254 341.169C360.9 341.392 358.177 339.076 358.177 336.049L358.947 242.199C358.947 239.152 361.671 236.62 365.024 236.536L422.691 235.141C425.89 235.064 452.854 239.124 452.854 239.124L427.704 331.621C427.704 334.592 393.115 347.237 389.916 347.446Z" fill="#37857E"/>
<path d="M449.358 343.684L391.191 347.432C387.808 347.647 385.061 345.354 385.061 342.341V245.668C385.061 242.634 387.808 240.127 391.191 240.037L449.358 238.651C452.579 238.582 455.192 240.909 455.192 243.853V337.97C455.192 340.914 452.579 343.463 449.358 343.684Z" fill="#5BBCA8"/>
<path d="M254.604 406.356L225.281 399.556C220.75 399.856 217.076 396.863 217.076 392.862V332.116C217.076 328.115 220.75 324.724 225.281 324.53L303.083 321.236C307.393 321.051 337.369 325.369 337.369 325.369L310.873 386.902C310.882 390.787 258.914 406.073 254.604 406.356Z" fill="url(#paint5_linear)"/>
<path d="M337.378 402.4L259.576 407.513C255.054 407.813 251.371 404.81 251.371 400.819V336.248C251.371 332.248 255.054 328.857 259.576 328.663L337.378 325.369C341.688 325.184 345.177 328.186 345.177 332.072V394.858C345.177 398.744 341.688 402.099 337.378 402.4Z" fill="url(#paint6_linear)"/>
<path d="M187.684 352.921L104.282 357.142C102.668 357.191 101.093 357.647 99.7033 358.468C98.3134 359.29 97.1541 360.45 96.3334 361.84C95.7736 362.826 95.47 363.938 95.4502 365.072V397.869C95.4502 402.002 99.2215 405.596 104.282 407.512L133.516 414.462C138.136 414.162 196.039 398.249 196.039 394.231L210.091 379.466L224.398 358.043C224.398 358.043 192.303 352.691 187.684 352.921Z" fill="url(#paint7_linear)"/>
<path d="M221.979 409.985L138.568 415.46C133.711 415.778 129.736 412.687 129.736 408.546V370.309C129.736 366.176 133.684 362.617 138.568 362.361L221.979 358.149C226.589 357.919 230.325 360.983 230.325 365.001V402.135C230.325 406.179 226.589 409.676 221.979 409.985Z" fill="url(#paint8_linear)"/>
<path d="M430.795 417.111L388.34 353.406C387.412 351.998 386.935 350.341 386.971 348.656L388.101 292.139C388.148 290.655 388.558 289.205 389.294 287.916C390.031 286.627 391.072 285.537 392.326 284.743C393.581 283.949 395.011 283.473 396.491 283.359C397.971 283.244 399.457 283.493 400.819 284.085C425.841 295.503 476.369 329.484 446.331 414.162C445.76 415.774 444.773 417.207 443.47 418.316C442.168 419.425 440.595 420.17 438.912 420.476C437.378 420.775 435.79 420.615 434.346 420.017C432.903 419.418 431.668 418.408 430.795 417.111Z" fill="url(#paint9_linear)"/>
<g style="mix-blend-mode:multiply" opacity="0.3">
<path style="mix-blend-mode:multiply" opacity="0.3" d="M430.795 417.111L388.34 353.406C387.412 351.998 386.935 350.341 386.971 348.656L388.101 292.139C388.148 290.655 388.558 289.205 389.294 287.916C390.031 286.627 391.072 285.537 392.326 284.743C393.581 283.949 395.011 283.473 396.491 283.359C397.971 283.244 399.457 283.493 400.819 284.085C425.841 295.503 476.369 329.484 446.331 414.162C445.76 415.774 444.773 417.207 443.47 418.316C442.168 419.425 440.595 420.17 438.912 420.476C437.378 420.775 435.79 420.615 434.346 420.017C432.903 419.418 431.668 418.408 430.795 417.111Z" fill="url(#paint10_linear)"/>
</g>
<path d="M433.604 418.039L396.686 350.978C395.875 349.499 395.539 347.807 395.723 346.13L401.623 289.949C401.795 288.475 402.324 287.065 403.166 285.842C404.008 284.62 405.136 283.622 406.452 282.936C407.769 282.25 409.233 281.896 410.717 281.905C412.201 281.915 413.661 282.287 414.968 282.99C438.938 296.492 486.411 334.615 449.334 416.449C448.627 418.012 447.52 419.359 446.123 420.355C444.727 421.351 443.092 421.959 441.385 422.118C439.831 422.278 438.263 421.977 436.879 421.251C435.496 420.526 434.356 419.408 433.604 418.039Z" fill="#F36F56"/>
<path d="M321.878 450.748C363.608 450.748 397.436 443.948 397.436 435.559C397.436 427.17 363.608 420.37 321.878 420.37C280.148 420.37 246.319 427.17 246.319 435.559C246.319 443.948 280.148 450.748 321.878 450.748Z" fill="#449383"/>
<path d="M396.314 420.361L362.894 381.259C362.894 376.702 344.532 373.011 321.878 373.011C299.223 373.011 280.87 376.702 280.87 381.259L247.441 420.361C246.752 421.075 246.353 422.019 246.319 423.01C246.319 431.4 280.146 438.199 321.869 438.199C363.592 438.199 397.427 431.4 397.427 423.01C397.396 422.02 397 421.076 396.314 420.361Z" fill="url(#paint11_linear)"/>
<path d="M321.878 393.057C363.608 393.057 397.436 386.256 397.436 377.868C397.436 369.479 363.608 362.679 321.878 362.679C280.148 362.679 246.319 369.479 246.319 377.868C246.319 386.256 280.148 393.057 321.878 393.057Z" fill="#FFB99F"/>
<path d="M414.023 181.331C390.256 161.02 357.498 144.295 327.469 144.189C296.062 144.074 254.966 164.844 229.706 181.331C227.021 193.302 226.219 205.619 227.33 217.837L246.293 377.868H397.436L416.399 217.837C417.51 205.619 416.708 193.302 414.023 181.331Z" fill="#FFB99F"/>
<path style="mix-blend-mode:multiply" opacity="0.2" d="M345.998 326.87C339.162 291.909 307.729 292.625 298.906 260.083C288.961 223.374 323.724 203.16 310.387 166.477C302.757 145.452 288.89 145.284 283.564 127.622C281.189 119.728 280.915 109.696 285.569 96.856L257.713 127.463C246.67 139.601 238.271 153.9 233.047 169.454C227.823 185.008 225.888 201.478 227.366 217.819L246.328 377.85C246.328 386.239 280.155 393.039 321.878 393.039C329.173 393.039 336.221 392.827 342.89 392.447C341.517 389.393 340.518 386.185 339.913 382.892C336.159 362.22 350.971 352.338 345.998 326.87Z" fill="url(#paint12_linear)"/>
<path d="M390.079 254.343C390.079 282.664 369.279 306.56 343.092 307.743C316.296 308.962 294.101 286.046 294.101 256.525C294.101 227.004 316.296 203.081 343.092 203.081C369.244 203.081 390.079 226.032 390.079 254.343Z" fill="url(#paint13_linear)"/>
<path style="mix-blend-mode:multiply" opacity="0.3" d="M390.079 254.343C390.079 282.664 369.279 306.56 343.092 307.743C316.296 308.962 294.101 286.046 294.101 256.525C294.101 227.004 316.296 203.081 343.092 203.081C369.244 203.081 390.079 226.032 390.079 254.343Z" fill="url(#paint14_linear)"/>
<path d="M393.029 254.343C393.029 282.664 372.238 306.56 346.042 307.743C319.246 308.962 297.06 286.046 297.06 256.525C297.06 227.004 319.246 203.081 346.042 203.081C372.238 203.081 393.029 226.032 393.029 254.343Z" fill="url(#paint15_linear)"/>
<path d="M390.079 254.414C390.079 280.95 370.578 303.319 346.042 304.396C320.977 305.491 300.257 284.041 300.257 256.454C300.257 228.867 320.977 206.463 346.042 206.428C370.578 206.392 390.079 227.878 390.079 254.414Z" fill="#EAEAEA"/>
<path d="M380.47 265.223C375.17 286.161 355.466 299.098 336.159 293.949C316.526 288.713 304.938 266.866 310.546 245.38C316.155 223.895 336.565 211.355 355.846 217.219C374.817 222.959 385.734 244.365 380.47 265.223Z" fill="url(#paint16_linear)"/>
<path d="M386.025 127.463L326.673 62.2218C326.063 61.5503 325.32 61.0138 324.49 60.6466C323.66 60.2795 322.763 60.0898 321.856 60.0898C320.948 60.0898 320.051 60.2795 319.221 60.6466C318.392 61.0138 317.648 61.5503 317.038 62.2218L257.713 127.463C243.85 142.679 234.194 161.245 229.697 181.331C290.759 171.82 352.925 171.82 413.987 181.331C409.509 161.25 399.871 142.683 386.025 127.463Z" fill="#FF765C"/>
<path style="mix-blend-mode:multiply" opacity="0.3" d="M256.193 129.229C255.92 129.539 255.646 129.856 255.381 130.174L254.983 130.642L254.18 131.596L253.826 132.02L252.661 133.389V133.433C252.307 133.874 251.954 134.316 251.61 134.775L251.274 135.208L250.523 136.206L250.161 136.691L249.41 137.716L249.11 138.131C248.766 138.608 248.421 139.093 248.086 139.579V139.632L247.123 141.036L246.84 141.469C246.602 141.822 246.372 142.175 246.143 142.529L245.825 143.005L245.127 144.118C245.039 144.242 244.959 144.374 244.88 144.507C244.562 145.01 244.253 145.513 243.943 146.026V146.079C243.643 146.564 243.36 147.05 243.06 147.544L242.822 147.968C242.601 148.339 242.389 148.719 242.168 149.099C242.089 149.258 242 149.408 241.912 149.567C241.691 149.964 241.47 150.361 241.258 150.759L241.055 151.121L240.216 152.71C239.951 153.223 239.686 153.735 239.43 154.256C239.36 154.388 239.298 154.53 239.227 154.662L238.529 155.898C238.459 156.048 238.379 156.199 238.309 156.34C238.105 156.773 237.902 157.223 237.708 157.638C237.655 157.744 237.611 157.841 237.567 157.947C237.311 158.503 237.063 159.051 236.816 159.607C236.586 160.137 236.348 160.685 236.127 161.223C236.065 161.347 236.012 161.479 235.959 161.603C235.783 162.036 235.606 162.486 235.438 162.892C235.376 163.034 235.323 163.166 235.27 163.307C235.085 163.775 234.899 164.235 234.723 164.703C234.723 164.791 234.652 164.879 234.626 164.959C234.193 166.089 233.742 167.219 233.389 168.35C233.345 168.473 233.31 168.597 233.265 168.721C233.106 169.171 232.956 169.604 232.806 170.072C232.762 170.204 232.727 170.337 232.683 170.469C232.515 170.955 232.365 171.449 232.206 171.944C232.206 172.014 232.206 172.085 232.144 172.156C231.782 173.313 231.446 174.469 231.119 175.635C231.119 175.759 231.057 175.873 231.022 175.997L230.651 177.392C230.651 177.525 230.589 177.648 230.554 177.781C230.421 178.293 230.289 178.814 230.165 179.335C230.165 179.388 230.165 179.45 230.165 179.503L229.697 181.331C257.123 177.072 284.809 174.712 312.56 174.266C312.034 171.614 311.302 169.007 310.369 166.469C302.738 145.443 288.872 145.275 283.546 127.613C281.171 119.719 280.897 109.687 285.551 96.8472L257.713 127.463C257.315 127.896 256.918 128.346 256.529 128.788L256.193 129.229Z" fill="url(#paint17_linear)"/>
<path d="M216.299 436.177L258.508 358.758C259.389 357.169 259.762 355.347 259.576 353.539L253.005 294.762C252.263 288.103 244.173 284.615 237.911 288.289C209.975 304.635 151.269 351.914 197.522 437.387C199.289 440.593 202.972 442.412 207.034 442.067C208.941 441.912 210.781 441.295 212.395 440.268C214.01 439.242 215.35 437.838 216.299 436.177Z" fill="url(#paint18_linear)"/>
<path style="mix-blend-mode:multiply" opacity="0.8" d="M259.576 353.53L253.005 294.753C252.936 294.136 252.8 293.529 252.599 292.942C251.062 293.096 249.576 293.581 248.245 294.364C220.636 310.639 162.75 357.539 207.617 441.97C209.411 441.733 211.126 441.084 212.627 440.074C214.129 439.065 215.376 437.722 216.273 436.15L258.481 358.731C259.368 357.15 259.75 355.335 259.576 353.53Z" fill="#F36F56"/>
<path d="M224.795 243.904L92.5848 246.837C89.5019 246.904 87.002 244.616 87.002 241.725V200.569C87.002 197.678 89.5019 195.347 92.5848 195.365L224.795 196.102C226.07 196.102 227.292 196.615 228.194 197.528C229.096 198.441 229.602 199.679 229.602 200.97V238.969C229.593 240.263 229.086 241.503 228.188 242.425C227.29 243.346 226.073 243.877 224.795 243.904Z" fill="url(#paint19_linear)"/>
<path d="M228.301 243.904L96.0916 246.837C93.0148 246.904 90.5088 244.616 90.5088 241.725V200.569C90.5088 197.678 93.0148 195.347 96.0916 195.365L228.301 196.102C229.576 196.102 230.799 196.615 231.701 197.528C232.603 198.441 233.109 199.679 233.109 200.97V238.969C233.1 240.263 232.593 241.503 231.695 242.425C230.797 243.346 229.58 243.877 228.301 243.904Z" fill="url(#paint20_linear)"/>
<path style="mix-blend-mode:multiply" opacity="0.3" d="M227.361 237.684L96.6141 201.09L91.8068 196.535C90.9796 197.412 90.5146 198.581 90.5088 199.799V241.969C90.5088 244.723 92.8704 246.887 95.7788 246.838L228.581 243.862C229.219 243.846 229.847 243.694 230.426 243.417C231.004 243.14 231.519 242.743 231.94 242.252L227.361 237.684Z" fill="url(#paint21_linear)"/>
<path d="M94.0156 241.287V200.95C94.0272 200.666 94.0955 200.387 94.2165 200.129C94.3376 199.871 94.5091 199.639 94.7211 199.447C94.9331 199.254 95.1816 199.105 95.4523 199.007C95.723 198.909 96.0106 198.865 96.2986 198.877L228.807 199.392C229.328 199.392 229.828 199.596 230.196 199.959C230.565 200.323 230.772 200.815 230.772 201.329V238.693C230.77 239.209 230.564 239.704 230.196 240.071C229.829 240.439 229.33 240.65 228.807 240.66L96.2986 243.325C96.0124 243.342 95.7256 243.302 95.4551 243.209C95.1846 243.115 94.9358 242.969 94.7232 242.779C94.5107 242.589 94.3386 242.36 94.2171 242.104C94.0956 241.847 94.0271 241.57 94.0156 241.287Z" fill="url(#paint22_linear)"/>
<g style="mix-blend-mode:soft-light" opacity="0.6">
<path d="M218.596 235.339C210.295 234.113 208.024 227.478 195.86 225.269C183.877 223.065 181.336 228.201 171.833 226.021C158.486 222.964 159.94 209.931 146.19 204.582C132.249 199.155 123.563 209.599 110.03 205.393C106.024 204.105 102.401 201.867 99.4758 198.877H96.1721C95.9002 198.865 95.6285 198.906 95.3728 198.998C95.1171 199.09 94.8823 199.231 94.6819 199.412C94.4816 199.594 94.3196 199.813 94.2052 200.056C94.0909 200.3 94.0264 200.564 94.0156 200.832V241.406C94.0263 241.672 94.0909 241.934 94.2057 242.176C94.3205 242.418 94.4831 242.634 94.6841 242.813C94.885 242.992 95.1201 243.129 95.3756 243.217C95.6312 243.305 95.902 243.342 96.1721 243.325L228.922 240.659C229.415 240.648 229.885 240.448 230.23 240.1C230.576 239.753 230.77 239.286 230.772 238.799V233.118C225.888 235.428 221.882 235.825 218.596 235.339Z" fill="white"/>
</g>
<path d="M489.089 66.6816L488.246 64.9604C487.797 64.8511 487.397 64.5744 487.115 64.1781L486.77 63.573C486.731 63.3276 486.752 63.075 486.833 62.8419C486.914 62.6088 487.051 62.4037 487.23 62.2482C487.302 62.1745 487.358 62.083 487.391 61.9814C487.424 61.8798 487.435 61.771 487.422 61.6641C487.336 61.0069 487.153 59.6612 487.115 59.317C487.113 59.066 487.169 58.8185 487.278 58.5972C487.291 58.566 487.312 58.5396 487.338 58.5211C487.364 58.5025 487.395 58.4927 487.427 58.4927C487.458 58.4927 487.489 58.5025 487.515 58.5211C487.541 58.5396 487.562 58.566 487.575 58.5972L488.246 61.3094C488.246 61.3094 488.792 61.1529 488.974 61.6536C489.11 61.7459 489.228 61.8675 489.321 62.011C489.413 62.1544 489.477 62.3168 489.51 62.4882C489.55 63.0889 489.55 63.6921 489.51 64.2928L490.258 66.1183L489.089 66.6816Z" fill="url(#paint23_linear)"/>
<path d="M487.411 66.7562C487.918 67.8802 490.701 74.4238 487.483 80.5057C483.904 87.2801 474.251 90.8328 464.598 87.7718C464.526 88.9862 463.729 104.311 471.489 107.975C479.827 111.899 495.512 101.21 498.077 87.7718C500.271 76.2805 491.818 66.977 490.442 65.5117L487.411 66.7562Z" fill="url(#paint24_linear)"/>
<path d="M457.884 190.785C457.618 191.165 457.499 191.623 457.547 192.078C457.523 192.188 457.523 192.301 457.547 192.41C457.725 192.868 458.668 192.859 460.144 192.922C462.48 193.012 463.181 193.147 463.34 192.805C463.499 192.464 463.05 191.997 462.994 191.908C462.67 191.616 462.258 191.43 461.817 191.378C460.696 191.099 459.948 190.947 459.715 190.911C458.313 190.668 458.08 190.614 457.884 190.785Z" fill="url(#paint25_linear)"/>
<path d="M458.642 188.346L458.698 190.477C458.569 190.597 458.417 190.669 458.259 190.683C458.102 190.698 457.944 190.655 457.803 190.559L457.529 188.451L458.642 188.346Z" fill="url(#paint26_linear)"/>
<path d="M478.994 189.828C478.772 190.017 478.628 190.262 478.583 190.527C478.538 190.793 478.596 191.063 478.747 191.298C479.087 191.667 479.633 191.43 481.156 191.535C482.679 191.641 483.214 192.002 484.315 191.79C484.768 191.702 485.571 191.482 485.581 191.21C485.592 190.937 485.18 190.902 483.863 190.453C483.128 190.164 482.371 189.917 481.598 189.714C480.549 189.529 479.571 189.335 478.994 189.828Z" fill="url(#paint27_linear)"/>
<path d="M480.317 187.176L480.906 190.278C480.71 190.486 480.472 190.621 480.22 190.667C479.967 190.714 479.709 190.671 479.474 190.544L478.568 187.511L480.317 187.176Z" fill="url(#paint28_linear)"/>
<path d="M475.984 127.514C475.145 147.686 476.798 167.883 480.907 187.674L477.674 188.346C474.224 185 471.769 180.813 470.567 176.227C469.728 172.794 470.168 171.083 469.749 166.898C469.077 160.247 467.187 156.713 465.319 151.234C462.973 144.275 461.534 137.06 461.036 129.755L475.984 127.514Z" fill="#67C0AE"/>
<path style="mix-blend-mode:multiply" opacity="0.3" d="M474.552 169.861C473.361 165.308 471.062 164.112 470.978 159.823C470.915 156.781 472.032 156.538 471.98 153.627C471.864 149.217 469.175 146.915 467.826 144.137C466.476 141.358 465.854 136.501 469.702 128.684L461.036 129.971C461.533 137.258 462.978 144.456 465.338 151.397C467.214 156.811 469.112 160.37 469.787 166.992C470.208 171.159 469.787 172.863 470.609 176.28C471.816 180.846 474.282 185.015 477.747 188.346L478.569 188.174C476.374 185.844 474.973 182.925 474.552 179.808C474.141 175.996 475.754 174.444 474.552 169.861Z" fill="url(#paint29_linear)"/>
<path d="M465.712 127.692C464.47 139.168 463.319 150.869 462.26 162.793C461.486 171.728 460.808 180.561 460.224 189.292L457.037 189.516C455.733 186.744 454.778 183.82 454.197 180.812C453.311 176.236 453.708 173.566 453.464 168.857C453.189 163.578 452.446 162.385 451.377 155.689C449.198 142.083 448.119 135.306 451.56 131.229C452.68 129.955 456.152 126.724 465.712 127.692Z" fill="#5CB4A2"/>
<path style="mix-blend-mode:multiply" opacity="0.3" d="M496.762 74.8706C496.73 76.0739 496.487 77.262 496.044 78.3803C494.67 81.8188 491.395 84.3213 492.072 88.1769C492.405 90.0996 493.457 90.7812 493.032 92.1749C492.426 94.2095 489.929 94.0671 487.271 96.3153C484.915 98.3499 484.784 100.161 483.571 101.839C481.923 104.118 478.214 106.193 469.218 105.532C469.992 106.555 470.987 107.387 472.129 107.963C480.276 111.941 495.599 101.107 498.106 87.4851C498.832 83.2363 498.366 78.868 496.762 74.8706Z" fill="url(#paint30_linear)"/>
<path d="M437.658 91.4958C445.854 88.7051 454.494 87.4503 463.145 87.7944C468.538 88.0366 473.885 88.905 479.078 90.3823L480.809 100.084C480.984 104.356 480.922 108.635 480.624 112.9C480.263 118.055 479.902 118.169 479.068 125.489C477.707 137.428 478.284 140.542 475.883 141.985C474.327 142.913 473.76 141.789 465.793 140.954C460.455 140.429 457.734 140.181 455.034 141.099C451.355 142.346 450.118 144.439 448.603 143.759C447.088 143.078 446.954 140.583 446.779 136.201C446.511 129.438 446.532 124.86 446.501 123.19C446.387 115.643 444.44 109.879 442.028 102.497C440.789 98.7471 439.33 95.0737 437.658 91.4958Z" fill="url(#paint31_linear)"/>
<path d="M458.062 73.7007C457.933 76.9462 457.509 80.1701 456.797 83.3255C456.196 85.8666 455.843 86.5188 455.387 87.036C454.931 87.5532 453.707 88.4303 448.17 89.5772C445.142 90.2068 444.769 90.1618 444.686 90.4767C444.292 92.0283 452.131 97.8302 460.592 97.0207C465.756 96.5259 470.588 93.625 470.38 91.9384C470.173 90.2518 465.009 90.859 463.62 87.7332C462.666 85.4844 464.014 82.6284 465.528 80.2222C464.304 77.3887 459.244 76.5342 458.062 73.7007Z" fill="url(#paint32_linear)"/>
<path d="M469.128 76.5969C469.897 75.555 470.336 74.2921 470.382 72.9821C470.429 71.6721 470.081 70.3794 469.387 69.282C468.804 68.5635 468.084 67.9763 467.272 67.5569C466.46 67.1375 465.574 66.8947 464.668 66.8437C460.963 66.1853 456.173 67.5264 454.356 70.9888C453.27 73.037 455.158 77.5235 455.441 78.3038C455.725 79.084 456.432 79.5473 457.022 80.2544L461.199 85.3993C461.458 84.5136 461.781 83.6496 462.166 82.8147C462.69 81.7441 463.34 80.7449 464.101 79.8399C466.154 77.5235 467.688 78.3281 469.128 76.5969Z" fill="#484848"/>
<path d="M456.773 83.2966C457.493 84.6336 458.517 85.745 459.746 86.5232C460.975 87.3014 462.367 87.7202 463.788 87.7389C468.137 87.7389 469.283 77.1182 466.64 74.6928C466.02 74.2467 465.323 73.9421 464.591 73.7974C463.86 73.6526 463.109 73.6706 462.385 73.8503C461.496 74.0545 461.169 74.463 459.696 74.7694C458.223 75.0757 457.942 74.7694 457.521 75.2545C457.1 75.7395 456.562 76.8118 457.264 79.9521C456.997 79.5235 456.617 79.1938 456.174 79.0069C455.731 78.8199 455.247 78.7845 454.785 78.9053C454.536 79.035 454.325 79.2385 454.177 79.4925C453.639 80.6669 454.505 82.2754 456.773 83.2966Z" fill="url(#paint33_linear)"/>
<path d="M458.204 74.8979C458.421 75.0986 457.722 75.8762 457.601 77.0552C457.597 78.3286 458.003 79.5667 458.755 80.5716C459.506 81.5765 460.559 82.2903 461.746 82.5988C463.096 82.8246 463.505 81.9968 465.747 81.8714C466.835 81.8171 467.926 81.9441 468.976 82.2476C469.303 83.3415 469.298 84.5138 468.962 85.6046C468.625 86.6955 467.974 87.6518 467.096 88.3431C466.343 88.7156 465.52 88.9088 464.686 88.9088C463.853 88.9088 463.029 88.7156 462.276 88.3431C460.792 87.8157 459.543 86.7463 458.758 85.333C457.77 83.3012 458.903 82.1473 457.722 80.7426C456.89 80.0227 456.168 79.1771 455.577 78.2341C455.425 77.9447 455.296 77.6427 455.191 77.3311C456.3 76.1772 457.915 74.6471 458.204 74.8979Z" fill="#636363"/>
<path d="M466.478 83.184C465.554 83.8616 464.56 84.0763 463.583 83.8089C463.553 83.7664 463.516 83.7435 463.478 83.7435C463.441 83.7435 463.404 83.7664 463.373 83.8089C463.638 84.4176 463.98 84.8775 464.363 85.1425C464.746 85.4076 465.158 85.4686 465.557 85.3192C466.32 84.9546 466.952 83.6006 466.873 83.2361C466.794 82.8715 466.662 83.184 466.478 83.184Z" fill="url(#paint34_linear)"/>
<path d="M442.804 123.289L444.749 123.194C444.749 123.194 446.892 121.574 447.885 121.669C448.799 121.816 449.679 122.101 450.488 122.512C450.666 122.644 449.955 123.355 449.244 123.289C448.533 123.222 446.955 123.563 446.672 124.132C446.39 124.7 445.157 125.079 444.948 124.71L442.334 125.174L442.804 123.289Z" fill="url(#paint35_linear)"/>
<path d="M441.74 122.469C441.93 123.621 441.654 124.801 440.969 125.758C438.428 128.917 429.819 127.624 424.697 123.391C422.886 121.848 421.436 119.944 420.446 117.807C419.456 115.67 418.948 113.35 418.957 111.005C419.101 102.481 427.186 94.1366 439.251 91.2483L444.672 106.843C437.245 106.954 432.73 112.41 433.357 116.311C433.851 119.219 437.328 121.827 441.74 122.469Z" fill="url(#paint36_linear)"/>
<path style="mix-blend-mode:multiply" opacity="0.3" d="M472.556 137.98C468.697 136.298 468.717 132.788 465.112 131.365C459.974 129.288 454.287 134.107 453.404 132.767C452.52 131.427 459.263 127.118 458.359 122.912C457.649 119.568 452.906 120.16 450.378 115.581C447.971 111.24 450.296 107.273 448.164 105.726C447.402 105.186 446.052 104.968 443.503 106.12C445.28 111.811 446.549 116.827 446.651 123.047C446.651 124.709 446.651 129.34 446.925 136.152C447.098 140.566 447.281 143.1 448.723 143.764C450.165 144.429 451.434 142.341 455.059 141.085C457.72 140.161 460.401 140.41 465.661 140.94C473.51 141.739 474.069 142.871 475.602 141.978C476.618 141.365 477.075 140.441 477.4 138.676C475.753 138.88 474.083 138.641 472.556 137.98Z" fill="url(#paint37_linear)"/>
<path opacity="0.75" d="M483.244 18.0849C483.244 8.03774 474.603 0 463.958 0C453.313 0 444.672 8.03774 444.672 18.0849C444.692 20.9935 445.437 23.8529 446.844 26.4122C448.251 28.9715 450.275 31.1525 452.74 32.7638C453.761 33.4441 454.597 34.3588 455.176 35.4286C455.755 36.4984 456.06 37.6909 456.064 38.9026V40.1887C456.064 41.6285 456.645 43.0096 457.68 44.0286C458.716 45.0477 460.12 45.6215 461.586 45.6242H466.33C467.796 45.6215 469.2 45.0477 470.236 44.0286C471.271 43.0096 471.852 41.6285 471.852 40.1887V38.8524C471.854 37.6425 472.155 36.4511 472.731 35.3815C473.306 34.3118 474.139 33.3961 475.155 32.7136C477.617 31.1093 479.641 28.9373 481.051 26.3873C482.461 23.8373 483.214 20.9868 483.244 18.0849Z" fill="#F4F6F9"/>
<path d="M468.049 53.8078C468.049 55.0965 466.219 56.1528 463.958 56.1528C461.697 56.1528 459.867 55.0965 459.867 53.8078C459.867 52.5191 461.697 51.4734 463.958 51.4734C466.219 51.4734 468.049 52.5191 468.049 53.8078Z" fill="url(#paint38_linear)"/>
<path d="M458.698 50.3037V52.4335C458.7 52.7861 458.801 53.1312 458.99 53.4294C459.179 53.7276 459.448 53.967 459.767 54.1204C461.214 54.7632 462.793 55.054 464.374 54.9685C465.627 54.9815 466.871 54.7643 468.045 54.3277C468.395 54.1845 468.694 53.94 468.903 53.6259C469.112 53.3117 469.222 52.9424 469.218 52.5654V51.3875L458.698 50.3037Z" fill="url(#paint39_linear)"/>
<path style="mix-blend-mode:multiply" opacity="0.3" d="M458.698 52.2398C458.865 52.4007 459.053 52.5357 459.256 52.6408C460.269 53.1395 466.938 54.264 468.546 53.6186C468.745 53.5368 468.933 53.4283 469.104 53.2959C469.181 53.0832 469.219 52.8579 469.218 52.631V51.4282L458.698 50.3037V52.2398Z" fill="url(#paint40_linear)"/>
<path d="M458.736 47.9715C458.588 47.9533 458.438 47.9677 458.296 48.0138C458.153 48.0599 458.021 48.1367 457.908 48.2394C457.795 48.3422 457.702 48.4686 457.637 48.6108C457.572 48.753 457.535 48.9079 457.529 49.0658V49.1424C457.53 49.6001 457.652 50.0483 457.882 50.4356C458.112 50.8228 458.44 51.1332 458.829 51.3311C459.933 51.8892 467.207 53.1477 468.96 52.4254C469.391 52.277 469.764 51.9823 470.022 51.5867C470.279 51.1912 470.406 50.7168 470.384 50.2368C470.383 49.9496 470.283 49.6727 470.102 49.4588C469.922 49.245 469.673 49.109 469.404 49.0768L458.736 47.9715Z" fill="url(#paint41_linear)"/>
<path style="mix-blend-mode:multiply" opacity="0.3" d="M469.559 49.1655L458.591 47.9715C458.386 47.9463 458.18 47.984 457.993 48.0808C457.806 48.1775 457.645 48.3296 457.529 48.5207C457.756 49.1172 458.167 49.601 458.687 49.8819C459.823 50.4909 467.626 52.0431 469.113 51.255C469.679 50.9566 470.131 50.4397 470.387 49.7983C470.3 49.6298 470.18 49.4855 470.037 49.376C469.893 49.2664 469.73 49.1945 469.559 49.1655Z" fill="url(#paint42_linear)"/>
<path d="M458.314 44.4543C458.105 44.457 457.905 44.5389 457.758 44.6824C457.612 44.8259 457.529 45.0195 457.529 45.2211V46.9837C457.527 47.4007 457.648 47.8096 457.879 48.1624C458.109 48.5152 458.439 48.7972 458.83 48.9754C459.934 49.4932 467.518 50.7778 468.963 50.1205C469.382 49.9415 469.738 49.6502 469.991 49.2813C470.243 48.9124 470.381 48.4813 470.387 48.0393V45.2211C470.387 45.0195 470.304 44.8259 470.158 44.6824C470.011 44.5389 469.811 44.457 469.602 44.4543H458.314Z" fill="url(#paint43_linear)"/>
<path d="M470.387 45.0331C470.387 46.0114 467.504 46.794 463.942 46.794C460.381 46.794 457.529 46.0114 457.529 45.0331C457.529 44.0548 460.412 43.2844 463.974 43.2844C467.535 43.2844 470.387 44.067 470.387 45.0331Z" fill="url(#paint44_linear)"/>
<path style="mix-blend-mode:multiply" d="M483.244 18.0849C483.244 8.03774 474.603 0 463.958 0C453.313 0 444.672 8.03774 444.672 18.0849C444.692 20.9935 445.437 23.8529 446.844 26.4122C448.251 28.9715 450.275 31.1525 452.74 32.7638C453.761 33.4441 454.597 34.3588 455.176 35.4286C455.755 36.4984 456.06 37.6909 456.064 38.9026V40.1887C456.064 41.6285 456.645 43.0096 457.68 44.0286C458.716 45.0477 460.12 45.6215 461.586 45.6242H466.33C467.796 45.6215 469.2 45.0477 470.236 44.0286C471.271 43.0096 471.852 41.6285 471.852 40.1887V38.8524C471.854 37.6425 472.155 36.4511 472.731 35.3815C473.306 34.3118 474.139 33.3961 475.155 32.7136C477.617 31.1093 479.641 28.9373 481.051 26.3873C482.461 23.8373 483.214 20.9868 483.244 18.0849Z" fill="url(#paint45_linear)"/>
<g style="mix-blend-mode:soft-light" opacity="0.5">
<path d="M463.958 45.6241C466.218 45.6241 468.049 45.1004 468.049 44.4543C468.049 43.8082 466.218 43.2844 463.958 43.2844C461.699 43.2844 459.867 43.8082 459.867 44.4543C459.867 45.1004 461.699 45.6241 463.958 45.6241Z" fill="#F4F6F9"/>
</g>
<path d="M463.133 44.454C463.075 44.4568 463.019 44.4356 462.976 44.3949C462.933 44.3543 462.906 44.2973 462.902 44.2359L459.87 19.007C459.865 18.9729 459.867 18.938 459.875 18.9046C459.883 18.8711 459.897 18.8399 459.917 18.8128C459.937 18.7857 459.962 18.7634 459.991 18.7474C460.019 18.7313 460.051 18.7218 460.083 18.7195C460.113 18.7154 460.144 18.7177 460.174 18.7265C460.203 18.7352 460.231 18.7502 460.255 18.7705C460.279 18.7908 460.299 18.816 460.314 18.8447C460.329 18.8734 460.338 18.905 460.342 18.9376L463.373 44.1665C463.378 44.2345 463.359 44.3021 463.32 44.3555C463.28 44.4089 463.223 44.4442 463.16 44.454H463.133Z" fill="url(#paint46_linear)"/>
<path d="M464.748 44.4522C464.685 44.4424 464.629 44.4067 464.591 44.353C464.553 44.2992 464.536 44.2317 464.544 44.1647L467.573 18.9377C467.582 18.8709 467.615 18.8107 467.666 18.7699C467.716 18.7292 467.779 18.7111 467.842 18.7196C467.873 18.7232 467.903 18.7336 467.931 18.7502C467.958 18.7668 467.982 18.7893 468.002 18.8162C468.021 18.8431 468.034 18.874 468.042 18.9068C468.049 18.9396 468.051 18.9737 468.045 19.007L465.016 44.2341C465.007 44.3009 464.974 44.3611 464.924 44.4019C464.873 44.4426 464.81 44.4607 464.748 44.4522Z" fill="url(#paint47_linear)"/>
<path style="mix-blend-mode:multiply" opacity="0.3" d="M464.1 32.0856C464.515 25.0362 476.301 23.3859 476.231 17.0904C476.231 13.2091 471.52 10.3262 470.519 9.75573C463.14 5.50775 454.063 10.4077 452.193 6.93393C451.861 6.19612 451.818 5.3595 452.071 4.59092C452.287 3.7455 452.716 2.97026 453.315 2.3396C450.702 3.93403 448.537 6.17455 447.024 8.84874C445.512 11.5229 444.702 14.5421 444.672 17.6201C444.691 20.5692 445.429 23.4684 446.819 26.0633C448.21 28.6582 450.211 30.8695 452.647 32.5033C453.656 33.193 454.483 34.1205 455.055 35.2051C455.628 36.2898 455.929 37.4989 455.933 38.7275V40.1129C455.933 41.5728 456.507 42.9731 457.531 44.0063C458.554 45.0396 459.943 45.6214 461.391 45.6241H466.082C467.53 45.6214 468.919 45.0396 469.942 44.0063C470.966 42.9731 471.54 41.5728 471.54 40.1129V38.9924C470.922 39.5115 470.151 39.8089 469.347 39.8379C466.547 39.8481 463.898 35.5899 464.1 32.0856Z" fill="url(#paint48_linear)"/>
<g style="mix-blend-mode:soft-light" opacity="0.44">
<path d="M464.543 33.9256C473.58 33.9256 480.907 26.8548 480.907 18.1326C480.907 9.41036 473.58 2.3396 464.543 2.3396C455.505 2.3396 448.179 9.41036 448.179 18.1326C448.179 26.8548 455.505 33.9256 464.543 33.9256Z" fill="#F4F6F9"/>
</g>
<path d="M162.927 502.372C162.776 502.372 162.631 502.313 162.524 502.207C162.416 502.101 162.355 501.958 162.353 501.807V332.946C162.37 332.807 162.437 332.679 162.542 332.586C162.647 332.494 162.782 332.443 162.922 332.443C163.062 332.443 163.197 332.494 163.302 332.586C163.407 332.679 163.475 332.807 163.492 332.946V501.807C163.492 501.957 163.432 502.101 163.326 502.207C163.22 502.313 163.077 502.372 162.927 502.372Z" fill="#A1A4AB"/>
<path d="M236.701 498.902C236.551 498.902 236.407 498.842 236.301 498.736C236.195 498.63 236.136 498.486 236.136 498.336V332.946C236.153 332.807 236.221 332.679 236.325 332.586C236.43 332.494 236.565 332.443 236.705 332.443C236.845 332.443 236.981 332.494 237.085 332.586C237.19 332.679 237.258 332.807 237.275 332.946V498.354C237.268 498.502 237.205 498.641 237.098 498.743C236.991 498.845 236.849 498.902 236.701 498.902Z" fill="#A1A4AB"/>
<path d="M229.256 522.197C229.128 522.197 229.004 522.155 228.903 522.076C228.802 521.998 228.731 521.888 228.699 521.764L184.398 334.597C184.362 334.451 184.387 334.296 184.466 334.168C184.544 334.04 184.671 333.948 184.817 333.913C184.963 333.878 185.118 333.902 185.246 333.981C185.375 334.059 185.466 334.186 185.502 334.332L229.812 521.464C229.844 521.612 229.818 521.766 229.739 521.894C229.66 522.023 229.534 522.115 229.388 522.153L229.256 522.197Z" fill="#F9FAFB"/>
<path d="M297.792 512.969C297.666 512.967 297.544 512.924 297.445 512.846C297.346 512.767 297.276 512.659 297.245 512.537L251.848 334.606C251.818 334.53 251.805 334.449 251.809 334.368C251.813 334.287 251.835 334.207 251.872 334.135C251.909 334.063 251.961 333.999 252.024 333.948C252.088 333.898 252.162 333.861 252.24 333.841C252.319 333.821 252.401 333.818 252.481 333.832C252.561 333.845 252.638 333.876 252.705 333.922C252.772 333.968 252.829 334.027 252.872 334.096C252.914 334.165 252.942 334.243 252.952 334.323L298.349 512.254C298.386 512.401 298.364 512.558 298.286 512.689C298.247 512.753 298.196 512.81 298.136 512.855C298.076 512.9 298.007 512.933 297.934 512.952L297.792 512.969Z" fill="#F9FAFB"/>
<path d="M255.001 334.615L184.336 336.134L161.699 334.615V331.286L214.347 330.217L255.001 331.286V334.615Z" fill="#D8DCE6"/>
<path d="M255.001 334.615L184.336 336.134V332.796L255.001 331.286V334.615Z" fill="url(#paint49_linear)"/>
<path d="M194.519 375.439C194.369 375.439 194.226 375.38 194.12 375.274C194.014 375.168 193.954 375.024 193.954 374.874C193.954 374.724 194.014 374.58 194.12 374.474C194.226 374.368 194.369 374.309 194.519 374.309L261.096 370.6C261.17 370.596 261.244 370.607 261.314 370.631C261.384 370.656 261.449 370.694 261.504 370.744C261.56 370.793 261.605 370.853 261.637 370.92C261.669 370.987 261.688 371.06 261.692 371.134C261.696 371.208 261.685 371.283 261.66 371.353C261.636 371.423 261.598 371.488 261.548 371.543C261.498 371.598 261.438 371.643 261.371 371.675C261.304 371.708 261.232 371.726 261.157 371.73L194.581 375.439H194.519Z" fill="#F9FAFB"/>
<path d="M203.324 412.643C203.185 412.626 203.058 412.558 202.965 412.453C202.872 412.348 202.821 412.213 202.821 412.073C202.821 411.933 202.872 411.798 202.965 411.693C203.058 411.589 203.185 411.521 203.324 411.504L271.022 406.991C271.172 406.981 271.32 407.03 271.433 407.129C271.547 407.227 271.617 407.367 271.627 407.517C271.638 407.667 271.588 407.815 271.49 407.928C271.391 408.042 271.252 408.111 271.102 408.122L203.395 412.643H203.324Z" fill="#F9FAFB"/>
<path d="M212.078 449.626C211.928 449.626 211.784 449.567 211.678 449.461C211.572 449.355 211.513 449.211 211.513 449.061C211.513 448.911 211.572 448.767 211.678 448.661C211.784 448.555 211.928 448.496 212.078 448.496L280.262 443.304C280.412 443.294 280.56 443.342 280.676 443.439C280.791 443.537 280.864 443.675 280.88 443.825C280.89 443.975 280.839 444.124 280.74 444.238C280.641 444.352 280.501 444.423 280.35 444.434L212.157 449.626H212.078Z" fill="#F9FAFB"/>
<path d="M220.786 486.406C220.643 486.407 220.506 486.353 220.401 486.257C220.296 486.16 220.232 486.027 220.221 485.885C220.208 485.734 220.256 485.585 220.354 485.469C220.451 485.353 220.591 485.281 220.742 485.267L289.349 479.156C289.499 479.144 289.647 479.191 289.763 479.286C289.878 479.382 289.952 479.519 289.967 479.668C289.975 479.743 289.967 479.819 289.945 479.891C289.922 479.963 289.886 480.03 289.837 480.087C289.789 480.145 289.729 480.192 289.662 480.226C289.595 480.261 289.521 480.281 289.446 480.287L220.865 486.406H220.786Z" fill="#F9FAFB"/>
<path d="M201.823 329.687C201.823 329.687 196.656 332.036 196.568 332.407C196.48 332.778 199.898 332.283 201.284 332.336C202.671 332.389 203.819 331.983 203.696 331.391C203.572 330.8 203.086 329.316 203.086 329.316L201.823 329.687Z" fill="url(#paint50_linear)"/>
<path d="M201.638 327.735L201.947 330.058C202.393 330.218 202.884 330.199 203.316 330.005L203.554 327.453L201.638 327.735Z" fill="url(#paint51_linear)"/>
<path d="M225.97 327.789L226.57 328.751C226.732 329.015 226.783 329.333 226.712 329.634C226.5 330.438 226.085 332.001 225.899 332.407C225.652 332.963 222.304 333.29 222.304 333.29C222.304 333.29 222.004 332.866 222.702 332.363C223.4 331.86 223.841 331.78 224.089 331.029C224.291 330.086 224.427 329.13 224.495 328.168L225.97 327.789Z" fill="url(#paint52_linear)"/>
<path d="M223.515 325.342C224.013 326.46 224.444 327.608 224.804 328.778C224.804 328.778 225.157 329.219 225.82 328.566C226.482 327.912 226.111 328.265 226.111 328.265L225.988 325.06L223.515 325.342Z" fill="url(#paint53_linear)"/>
<path d="M198.785 280.994C198.511 287.935 198.502 295.477 198.9 303.531C199.35 312.6 200.251 320.98 201.39 328.583C201.814 328.583 202.273 328.583 202.724 328.583L203.607 328.539C204.359 326.536 204.999 324.493 205.524 322.42C206.114 320.059 206.559 317.664 206.857 315.249C207.855 307.39 206.689 306.701 207.493 300.872C208.209 295.715 209.26 295.512 210.425 288.192C211.715 280.244 210.752 279.052 210.284 278.619C208.323 276.782 203.634 278.036 198.785 280.994Z" fill="url(#paint54_linear)"/>
<path style="mix-blend-mode:multiply" opacity="0.3" d="M210.32 278.619C208.412 276.853 204.058 277.93 199.456 280.597C204.755 286.311 205.329 290.019 204.694 292.43C203.978 295.15 201.797 295.963 201.805 298.903C201.805 302.559 205.117 303.53 205.047 307.398C205.003 309.95 203.545 309.924 203.21 313.085C202.803 316.821 204.693 318.11 204.093 320.874C203.615 322.665 202.488 324.213 200.931 325.219C201.084 326.361 201.243 327.482 201.408 328.583C201.832 328.583 202.291 328.583 202.742 328.583L203.625 328.539C204.377 326.536 205.017 324.493 205.541 322.419C206.132 320.059 206.577 317.664 206.875 315.249C207.873 307.389 206.707 306.701 207.511 300.872C208.226 295.715 209.277 295.512 210.443 288.191C211.75 280.235 210.788 279.052 210.32 278.619Z" fill="url(#paint55_linear)"/>
<path d="M202.07 280.88C207.442 288.738 212.083 297.07 215.937 305.774C218.928 312.53 221.434 319.492 223.435 326.605C223.98 326.856 224.59 326.923 225.176 326.797C225.762 326.672 226.292 326.359 226.685 325.908C227.278 322.25 227.411 318.533 227.083 314.843C226.874 312.021 226.352 309.231 225.528 306.524C224.274 302.462 223.409 302.232 221.766 297.941C220.061 293.525 220.476 292.377 218.842 286.805C217.862 283.464 216.643 280.197 215.195 277.03L202.07 280.88Z" fill="url(#paint56_linear)"/>
<path d="M203.943 255.138C198.909 252.197 196.754 252.542 195.297 249.901C193.839 247.261 193.857 243.146 196.242 240.956C196.84 240.423 197.539 240.015 198.297 239.755C199.056 239.496 199.858 239.391 200.658 239.446C204.376 239.87 204.65 244.073 208.827 245.998C212.36 247.632 216.22 246.484 218.834 245.707C225.123 243.835 226.05 240.294 229.318 240.859C233.398 241.565 233.734 247.447 237.832 247.8C240.552 248.047 241.197 245.495 244.774 244.789C248.978 243.967 253.606 246.405 256.167 249.372C260.893 254.803 259.647 262.9 256.697 267.846C254.268 271.908 249.04 276.579 244.641 275.572C241.162 274.778 240.031 270.857 237.046 271.254C234.917 271.528 234.838 273.594 232.33 274.654C228.196 276.42 223.109 273.073 221.731 272.164C217.774 269.576 218.401 267.925 213.296 262.741C210.547 259.785 207.399 257.225 203.943 255.138Z" fill="url(#paint57_linear)"/>
<path d="M164.34 242.599C164.34 242.599 163.368 241.38 162.75 240.479C161.651 239.25 160.471 238.097 159.217 237.026C159.217 237.026 158.996 237.433 159.614 238.077C160.233 238.722 161.549 239.843 161.248 240.303C160.948 240.762 160.1 241.186 160.71 242.069C161.319 242.952 162.379 242.351 162.927 243.067C163.474 243.782 164.022 244.541 164.022 244.541L164.34 242.599Z" fill="url(#paint58_linear)"/>
<path d="M164.702 241.804L162.732 244.789C163.668 247.525 164.988 250.115 166.654 252.48C168.95 255.705 171.839 258.462 175.168 260.604C181.677 264.746 193.539 268.614 197.01 264.198C200.101 260.269 195.102 251.544 194.183 249.981C191.406 251.286 188.412 252.068 185.351 252.286C182.512 252.511 179.656 252.211 176.926 251.403C169.895 249.266 166.009 243.844 164.702 241.804Z" fill="url(#paint59_linear)"/>
<path d="M187.356 254.626C187.639 255.906 192.108 255.218 193.035 257.558C193.53 258.803 192.479 259.598 192.435 261.726C192.382 264.11 193.653 265.461 194.625 267.333C196.047 270.071 196.056 272.764 196.065 278.133C196.065 285.79 194.192 287.326 195.808 289.79C197.91 293.004 202.954 293.207 204.323 293.26C208.986 293.455 209.542 291.238 214.603 290.973C220.388 290.673 221.209 293.481 225.343 292.28C229.123 291.185 230.395 288.271 233.336 288.88C235.173 289.251 235.668 290.594 237.399 290.452C239.13 290.311 240.931 288.757 241.064 287.176C241.223 285.207 238.812 282.761 235.041 282.716C232.884 283.522 230.539 283.682 228.293 283.176C223.762 282.072 221.413 278.222 218.798 273.948C217.032 270.989 213.658 265.55 213.623 258.423C213.623 255.483 214.161 254.626 213.358 253.054C210.761 247.95 200.666 248.709 199.809 248.789C192.929 249.398 187.012 253.089 187.356 254.626Z" fill="url(#paint60_linear)"/>
<path d="M229.944 273.542C230.276 274.414 230.715 275.242 231.252 276.005C231.834 276.65 232.709 277.286 232.868 278.363C233.027 279.44 232.674 280.615 232.462 280.129C232.25 279.644 231.093 278.911 230.58 278.275C230.119 277.491 229.819 276.624 229.697 275.723C229.441 275.227 229.117 274.769 228.734 274.363L229.944 273.542Z" fill="url(#paint61_linear)"/>
<path style="mix-blend-mode:multiply" opacity="0.3" d="M235.041 282.734C232.884 283.54 230.539 283.699 228.293 283.193C223.762 282.09 221.413 278.239 218.799 273.965C217.032 271.007 213.658 265.567 213.623 258.441C213.623 255.5 214.162 254.644 213.358 253.072C213.233 252.823 213.085 252.587 212.916 252.365C210.947 253.699 210.179 255.014 209.958 256.215C209.41 259.077 211.98 261.408 210.638 263.881C209.295 266.353 206.222 265.585 205.533 267.607C204.817 269.797 208.324 271.139 208.483 274.486C208.668 278.54 203.793 280.518 204.65 283.229C205.392 285.578 209.463 285.41 209.463 286.664C209.463 288.165 203.696 290.576 198.75 288.73C197.433 288.236 196.232 287.479 195.217 286.505C195.082 287.065 195.062 287.647 195.159 288.214C195.257 288.782 195.469 289.324 195.782 289.808C197.884 293.022 202.927 293.225 204.296 293.278C208.96 293.472 209.516 291.256 214.577 290.991C220.362 290.691 221.183 293.499 225.317 292.298C229.097 291.203 230.369 288.289 233.31 288.898C235.147 289.269 235.641 290.611 237.372 290.47C239.104 290.329 240.905 288.774 241.038 287.194C241.223 285.224 238.812 282.743 235.041 282.734Z" fill="url(#paint62_linear)"/>
<path d="M198.785 244.1C198.785 244.1 199.925 247.42 201.347 247.932C202.768 248.444 205.012 249.045 205.294 249.274C205.577 249.504 197.743 252.047 193.354 250.873C194.599 250.325 194.934 250.149 194.934 250.149C195.492 249.88 196.012 249.539 196.48 249.133C197.128 248.553 197.639 247.835 197.973 247.031L197.558 245.15L198.785 244.1Z" fill="url(#paint63_linear)"/>
<path d="M199.236 245.265C199.065 245.632 198.783 245.936 198.429 246.133C198.075 246.33 197.668 246.409 197.266 246.36C196.029 246.184 196.091 243.066 196.93 242.537C197.126 242.437 197.339 242.378 197.557 242.363C197.776 242.348 197.995 242.377 198.202 242.448C198.546 242.621 198.826 242.897 199.004 243.238C199.181 243.579 199.247 243.967 199.191 244.347C199.465 244.197 199.739 244.223 199.827 244.347C199.916 244.471 199.757 244.806 199.712 244.877C199.602 245.056 199.434 245.193 199.236 245.265Z" fill="url(#paint64_linear)"/>
<path d="M206.081 249.018C210.027 249.201 213.877 250.292 217.333 252.206C219.753 253.578 221.938 255.328 223.807 257.39C229.503 263.668 230.563 271.219 230.81 274.371L228.991 275.325C227.96 272.224 226.085 269.472 223.577 267.377C222.082 266.152 220.392 265.185 218.578 264.516C213.402 262.635 210.629 264.587 208.342 263.112C206.469 261.894 204.676 258.635 206.081 249.018Z" fill="url(#paint65_linear)"/>
<path d="M131.047 226.403H123.415V214.397H125.971V224.153H131.047V226.403ZM142.353 226.619C140.541 226.619 139.041 226.037 137.853 224.873C136.677 223.697 136.089 222.209 136.089 220.409C136.089 218.609 136.677 217.127 137.853 215.963C139.041 214.787 140.541 214.199 142.353 214.199C144.177 214.199 145.677 214.781 146.853 215.945C148.041 217.109 148.635 218.597 148.635 220.409C148.635 222.221 148.041 223.709 146.853 224.873C145.677 226.037 144.177 226.619 142.353 226.619ZM139.707 223.235C140.379 223.979 141.261 224.351 142.353 224.351C143.445 224.351 144.327 223.979 144.999 223.235C145.671 222.491 146.007 221.549 146.007 220.409C146.007 219.269 145.671 218.327 144.999 217.583C144.327 216.839 143.445 216.467 142.353 216.467C141.261 216.467 140.379 216.839 139.707 217.583C139.047 218.327 138.717 219.269 138.717 220.409C138.717 221.549 139.047 222.491 139.707 223.235ZM160.563 226.637C158.763 226.637 157.245 226.061 156.009 224.909C154.785 223.757 154.173 222.257 154.173 220.409C154.173 218.549 154.785 217.049 156.009 215.909C157.245 214.769 158.763 214.199 160.563 214.199C162.747 214.199 164.403 215.093 165.531 216.881L163.407 218.033C163.119 217.577 162.723 217.205 162.219 216.917C161.727 216.617 161.175 216.467 160.563 216.467C159.471 216.467 158.571 216.839 157.863 217.583C157.155 218.327 156.801 219.269 156.801 220.409C156.801 221.549 157.155 222.491 157.863 223.235C158.571 223.979 159.471 224.351 160.563 224.351C161.067 224.351 161.553 224.261 162.021 224.081C162.489 223.901 162.855 223.685 163.119 223.433V221.993H159.951V219.761H165.675V224.369C164.319 225.881 162.615 226.637 160.563 226.637ZM174.58 226.403H172.024V214.397H174.58V226.403ZM192.029 226.403H189.563L183.839 218.573V226.403H181.283V214.397H183.911L189.473 221.939V214.397H192.029V226.403Z" fill="white"/>
<defs>
<linearGradient id="paint0_linear" x1="48.659" y1="293.404" x2="200.399" y2="522.574" gradientUnits="userSpaceOnUse">
<stop stop-color="#FF9D7D"/>
<stop offset="1" stop-color="#FF9171"/>
</linearGradient>
<linearGradient id="paint1_linear" x1="104.666" y1="483.979" x2="107.46" y2="332.919" gradientUnits="userSpaceOnUse">
<stop stop-color="#F7664F"/>
<stop offset="1" stop-color="#FF9D7D"/>
</linearGradient>
<linearGradient id="paint2_linear" x1="18637.8" y1="43273.7" x2="3001.62" y2="74793.4" gradientUnits="userSpaceOnUse">
<stop stop-color="#77D2C0"/>
<stop offset="1" stop-color="#63BBA5"/>
</linearGradient>
<linearGradient id="paint3_linear" x1="26396.6" y1="61876.8" x2="19070.3" y2="48266.7" gradientUnits="userSpaceOnUse">
<stop stop-color="#2F1F45"/>
<stop offset="1" stop-color="#783C74"/>
</linearGradient>
<linearGradient id="paint4_linear" x1="51846.8" y1="69396.9" x2="31202.6" y2="29133.6" gradientUnits="userSpaceOnUse">
<stop stop-color="#36C1A5"/>
<stop offset="1" stop-color="#41AC97"/>
</linearGradient>
<linearGradient id="paint5_linear" x1="41159.9" y1="44965.2" x2="35525.7" y2="18028.8" gradientUnits="userSpaceOnUse">
<stop stop-color="#2F1F45"/>
<stop offset="1" stop-color="#783C74"/>
</linearGradient>
<linearGradient id="paint6_linear" x1="60779.3" y1="2456.91" x2="22244.3" y2="47389.5" gradientUnits="userSpaceOnUse">
<stop stop-color="#CD8BD8"/>
<stop offset="1" stop-color="#8A70F1"/>
</linearGradient>
<linearGradient id="paint7_linear" x1="29459.6" y1="38149.9" x2="25977" y2="13463.3" gradientUnits="userSpaceOnUse">
<stop stop-color="#2F1F45"/>
<stop offset="1" stop-color="#783C74"/>
</linearGradient>
<linearGradient id="paint8_linear" x1="59337.1" y1="-1334.72" x2="36176.6" y2="40160.4" gradientUnits="userSpaceOnUse">
<stop stop-color="#CD8BD8"/>
<stop offset="1" stop-color="#8A70F1"/>
</linearGradient>
<linearGradient id="paint9_linear" x1="6604.02" y1="55804.4" x2="708.82" y2="58518.3" gradientUnits="userSpaceOnUse">
<stop stop-color="#E58E83"/>
<stop offset="1" stop-color="#DD6FB6"/>
</linearGradient>
<linearGradient id="paint10_linear" x1="6604.02" y1="55804.4" x2="708.82" y2="58518.3" gradientUnits="userSpaceOnUse">
<stop stop-color="#E58E83"/>
<stop offset="1" stop-color="#DD6FB6"/>
</linearGradient>
<linearGradient id="paint11_linear" x1="51855.7" y1="28885.2" x2="51803.4" y2="22538.5" gradientUnits="userSpaceOnUse">
<stop stop-color="#4FA48A"/>
<stop offset="1" stop-color="#67C0AE"/>
</linearGradient>
<linearGradient id="paint12_linear" x1="25721.8" y1="29691.5" x2="96923.2" y2="81884.1" gradientUnits="userSpaceOnUse">
<stop offset="0.25" stop-color="#FF5838"/>
<stop offset="0.49" stop-color="#FF6345"/>
<stop offset="1" stop-color="#FEB89F"/>
</linearGradient>
<linearGradient id="paint13_linear" x1="386.776" y1="297.367" x2="309.479" y2="224.846" gradientUnits="userSpaceOnUse">
<stop stop-color="#DD6FB6"/>
<stop offset="1" stop-color="#E58E83"/>
</linearGradient>
<linearGradient id="paint14_linear" x1="386.776" y1="297.367" x2="309.479" y2="224.846" gradientUnits="userSpaceOnUse">
<stop stop-color="#DD6FB6"/>
<stop offset="1" stop-color="#E58E83"/>
</linearGradient>
<linearGradient id="paint15_linear" x1="40430.4" y1="30191.6" x2="31350.4" y2="22384.7" gradientUnits="userSpaceOnUse">
<stop stop-color="#DD6FB6"/>
<stop offset="1" stop-color="#E58E83"/>
</linearGradient>
<linearGradient id="paint16_linear" x1="339.927" y1="204.032" x2="357.03" y2="364.601" gradientUnits="userSpaceOnUse">
<stop stop-color="#68C6B3"/>
<stop offset="1" stop-color="#319C86"/>
</linearGradient>
<linearGradient id="paint17_linear" x1="21345.5" y1="7038.87" x2="26491" y2="16157.2" gradientUnits="userSpaceOnUse">
<stop stop-color="#E58E83"/>
<stop offset="1" stop-color="#DD6FB6"/>
</linearGradient>
<linearGradient id="paint18_linear" x1="17731.1" y1="42594.5" x2="21836.5" y2="84509.4" gradientUnits="userSpaceOnUse">
<stop stop-color="#E58E83"/>
<stop offset="1" stop-color="#DD6FB6"/>
</linearGradient>
<linearGradient id="paint19_linear" x1="18753.4" y1="9967.6" x2="11333.4" y2="3775.16" gradientUnits="userSpaceOnUse">
<stop stop-color="#2F1F45"/>
<stop offset="1" stop-color="#783C74"/>
</linearGradient>
<linearGradient id="paint20_linear" x1="25995.3" y1="6023.71" x2="25419.6" y2="13097.3" gradientUnits="userSpaceOnUse">
<stop stop-color="#EFC250"/>
<stop offset="1" stop-color="#D66F58"/>
</linearGradient>
<linearGradient id="paint21_linear" x1="25756.1" y1="5824.5" x2="25196.6" y2="12801.6" gradientUnits="userSpaceOnUse">
<stop stop-color="#EFC250"/>
<stop offset="1" stop-color="#D66F58"/>
</linearGradient>
<linearGradient id="paint22_linear" x1="23841.7" y1="8038.85" x2="21453.5" y2="21780.4" gradientUnits="userSpaceOnUse">
<stop stop-color="#EFC250"/>
<stop offset="1" stop-color="#D66F58"/>
</linearGradient>
<linearGradient id="paint23_linear" x1="2421.79" y1="431.664" x2="2473.88" y2="499.716" gradientUnits="userSpaceOnUse">
<stop stop-color="#EFC250"/>
<stop offset="1" stop-color="#D66F58"/>
</linearGradient>
<linearGradient id="paint24_linear" x1="18119.4" y1="5953.07" x2="19678.3" y2="3132.35" gradientUnits="userSpaceOnUse">
<stop stop-color="#CD8BD8"/>
<stop offset="1" stop-color="#8A70F1"/>
</linearGradient>
<linearGradient id="paint25_linear" x1="3716.49" y1="481.198" x2="3680.28" y2="484.589" gradientUnits="userSpaceOnUse">
<stop stop-color="#484C88"/>
<stop offset="1" stop-color="#2A2A4F"/>
</linearGradient>
<linearGradient id="paint26_linear" x1="929.216" y1="638.135" x2="920.669" y2="630.486" gradientUnits="userSpaceOnUse">
<stop stop-color="#EFC250"/>
<stop offset="1" stop-color="#D66F58"/>
</linearGradient>
<linearGradient id="paint27_linear" x1="6040.27" y1="-155.205" x2="5995.7" y2="-144.034" gradientUnits="userSpaceOnUse">
<stop stop-color="#484C88"/>
<stop offset="1" stop-color="#2A2A4F"/>
</linearGradient>
<linearGradient id="paint28_linear" x1="1723.3" y1="823.813" x2="1709.52" y2="810.069" gradientUnits="userSpaceOnUse">
<stop stop-color="#EFC250"/>
<stop offset="1" stop-color="#D66F58"/>
</linearGradient>
<linearGradient id="paint29_linear" x1="15780.3" y1="3953.64" x2="14478.5" y2="3091.41" gradientUnits="userSpaceOnUse">
<stop stop-color="#67C0AE"/>
<stop offset="1" stop-color="#6265D2"/>
</linearGradient>
<linearGradient id="paint30_linear" x1="15829.7" y1="4760.35" x2="16987.6" y2="2456.04" gradientUnits="userSpaceOnUse">
<stop stop-color="#CD8BD8"/>
<stop offset="1" stop-color="#8A70F1"/>
</linearGradient>
<linearGradient id="paint31_linear" x1="22732.7" y1="6850.79" x2="24499.8" y2="3706.21" gradientUnits="userSpaceOnUse">
<stop stop-color="#CD8BD8"/>
<stop offset="1" stop-color="#8A70F1"/>
</linearGradient>
<linearGradient id="paint32_linear" x1="28455.3" y1="-1635.26" x2="28669" y2="-2000.36" gradientUnits="userSpaceOnUse">
<stop stop-color="#FFB58B"/>
<stop offset="1" stop-color="#FFB58B"/>
</linearGradient>
<linearGradient id="paint33_linear" x1="4398.44" y1="-1409.7" x2="4398.01" y2="-1165.82" gradientUnits="userSpaceOnUse">
<stop stop-color="#EFC250"/>
<stop offset="1" stop-color="#FBBD9A"/>
</linearGradient>
<linearGradient id="paint34_linear" x1="470.854" y1="82.4028" x2="467.428" y2="92.8222" gradientUnits="userSpaceOnUse">
<stop stop-color="#E9E9E9"/>
<stop offset="1" stop-color="#D66F58"/>
</linearGradient>
<linearGradient id="paint35_linear" x1="4634.93" y1="499.153" x2="4636.95" y2="513.658" gradientUnits="userSpaceOnUse">
<stop stop-color="#EFC250"/>
<stop offset="1" stop-color="#D66F58"/>
</linearGradient>
<linearGradient id="paint36_linear" x1="13146.2" y1="4135.93" x2="14334.6" y2="2189.05" gradientUnits="userSpaceOnUse">
<stop stop-color="#CD8BD8"/>
<stop offset="1" stop-color="#8A70F1"/>
</linearGradient>
<linearGradient id="paint37_linear" x1="18085.4" y1="4837.5" x2="19213.5" y2="2548.54" gradientUnits="userSpaceOnUse">
<stop stop-color="#CD8BD8"/>
<stop offset="1" stop-color="#8A70F1"/>
</linearGradient>
<linearGradient id="paint38_linear" x1="463.576" y1="57.1246" x2="463.952" y2="54.3007" gradientUnits="userSpaceOnUse">
<stop stop-color="#2A2A4F"/>
<stop offset="1" stop-color="#484C88"/>
</linearGradient>
<linearGradient id="paint39_linear" x1="6016.04" y1="303.693" x2="6024.64" y2="268.893" gradientUnits="userSpaceOnUse">
<stop stop-color="#2A2A4F"/>
<stop offset="1" stop-color="#484C88"/>
</linearGradient>
<linearGradient id="paint40_linear" x1="5976.17" y1="230.344" x2="6093.15" y2="230.344" gradientUnits="userSpaceOnUse">
<stop stop-color="#2A2A4F"/>
<stop offset="1" stop-color="#484C88"/>
</linearGradient>
<linearGradient id="paint41_linear" x1="7253.96" y1="293.68" x2="7260.87" y2="257.131" gradientUnits="userSpaceOnUse">
<stop stop-color="#2A2A4F"/>
<stop offset="1" stop-color="#484C88"/>
</linearGradient>
<linearGradient id="paint42_linear" x1="7194.69" y1="221.406" x2="7350.39" y2="221.406" gradientUnits="userSpaceOnUse">
<stop stop-color="#2A2A4F"/>
<stop offset="1" stop-color="#484C88"/>
</linearGradient>
<linearGradient id="paint43_linear" x1="7192.5" y1="320.773" x2="7352.71" y2="320.773" gradientUnits="userSpaceOnUse">
<stop stop-color="#2A2A4F"/>
<stop offset="1" stop-color="#484C88"/>
</linearGradient>
<linearGradient id="paint44_linear" x1="7268.62" y1="205.742" x2="7269.85" y2="184.744" gradientUnits="userSpaceOnUse">
<stop stop-color="#2A2A4F"/>
<stop offset="1" stop-color="#484C88"/>
</linearGradient>
<linearGradient id="paint45_linear" x1="461.228" y1="14.2871" x2="485.514" y2="53.5258" gradientUnits="userSpaceOnUse">
<stop stop-color="#E8AE51"/>
<stop offset="0.06" stop-color="#EBB851"/>
<stop offset="0.14" stop-color="#EEC050"/>
<stop offset="0.32" stop-color="#EFC250"/>
<stop offset="0.48" stop-color="#ECB751"/>
<stop offset="0.78" stop-color="#E29A53"/>
<stop offset="0.87" stop-color="#DF9054"/>
<stop offset="1" stop-color="#DF9054"/>
</linearGradient>
<linearGradient id="paint46_linear" x1="2293.57" y1="1151.13" x2="2436.87" y2="1094.13" gradientUnits="userSpaceOnUse">
<stop offset="0.49" stop-color="#EBEDF0"/>
<stop offset="1" stop-color="white"/>
</linearGradient>
<linearGradient id="paint47_linear" x1="2314.9" y1="1192.83" x2="2458.2" y2="1135.82" gradientUnits="userSpaceOnUse">
<stop offset="0.49" stop-color="#EBEDF0"/>
<stop offset="1" stop-color="white"/>
</linearGradient>
<linearGradient id="paint48_linear" x1="17115.4" y1="240.404" x2="16830.6" y2="1950.75" gradientUnits="userSpaceOnUse">
<stop stop-color="#E8AE51"/>
<stop offset="0.06" stop-color="#EBB851"/>
<stop offset="0.14" stop-color="#EEC050"/>
<stop offset="0.32" stop-color="#EFC250"/>
<stop offset="0.48" stop-color="#ECB751"/>
<stop offset="0.78" stop-color="#E29A53"/>
<stop offset="0.87" stop-color="#DF9054"/>
<stop offset="1" stop-color="#DF9054"/>
</linearGradient>
<linearGradient id="paint49_linear" x1="18206.1" y1="1918.78" x2="12834.7" y2="2185.93" gradientUnits="userSpaceOnUse">
<stop offset="0.49" stop-color="#EBEDF0"/>
<stop offset="1" stop-color="white"/>
</linearGradient>
<linearGradient id="paint50_linear" x1="5560.14" y1="1342.56" x2="5562.27" y2="1402.6" gradientUnits="userSpaceOnUse">
<stop stop-color="#2A2A4F"/>
<stop offset="1" stop-color="#484C88"/>
</linearGradient>
<linearGradient id="paint51_linear" x1="202.636" y1="330.588" x2="202.406" y2="313.668" gradientUnits="userSpaceOnUse">
<stop stop-color="#783C74"/>
<stop offset="1" stop-color="#2F1F45"/>
</linearGradient>
<linearGradient id="paint52_linear" x1="3525.15" y1="2041.84" x2="3534.87" y2="2143.32" gradientUnits="userSpaceOnUse">
<stop stop-color="#2A2A4F"/>
<stop offset="1" stop-color="#484C88"/>
</linearGradient>
<linearGradient id="paint53_linear" x1="2539.73" y1="1575.6" x2="2538.24" y2="1501.59" gradientUnits="userSpaceOnUse">
<stop stop-color="#783C74"/>
<stop offset="1" stop-color="#2F1F45"/>
</linearGradient>
<linearGradient id="paint54_linear" x1="2717.21" y1="15168.1" x2="2894.08" y2="15168.1" gradientUnits="userSpaceOnUse">
<stop stop-color="#2A2A4F"/>
<stop offset="1" stop-color="#484C88"/>
</linearGradient>
<linearGradient id="paint55_linear" x1="2560.78" y1="15169.7" x2="2714.39" y2="15169.7" gradientUnits="userSpaceOnUse">
<stop stop-color="#2A2A4F"/>
<stop offset="1" stop-color="#484C88"/>
</linearGradient>
<linearGradient id="paint56_linear" x1="5383.68" y1="14806.3" x2="6102.03" y2="14806.3" gradientUnits="userSpaceOnUse">
<stop stop-color="#2A2A4F"/>
<stop offset="1" stop-color="#484C88"/>
</linearGradient>
<linearGradient id="paint57_linear" x1="15111.1" y1="8572.08" x2="15961.1" y2="9965.87" gradientUnits="userSpaceOnUse">
<stop stop-color="#2A2A4F"/>
<stop offset="1" stop-color="#484C88"/>
</linearGradient>
<linearGradient id="paint58_linear" x1="970.325" y1="1907.75" x2="1000.31" y2="1907.75" gradientUnits="userSpaceOnUse">
<stop stop-color="#783C74"/>
<stop offset="1" stop-color="#2F1F45"/>
</linearGradient>
<linearGradient id="paint59_linear" x1="6508.6" y1="6819.02" x2="6480.67" y2="7924.89" gradientUnits="userSpaceOnUse">
<stop stop-color="#CD8BD8"/>
<stop offset="1" stop-color="#8A70F1"/>
</linearGradient>
<linearGradient id="paint60_linear" x1="11948.7" y1="12350" x2="11887.4" y2="14373.3" gradientUnits="userSpaceOnUse">
<stop stop-color="#CD8BD8"/>
<stop offset="1" stop-color="#8A70F1"/>
</linearGradient>
<linearGradient id="paint61_linear" x1="42664.8" y1="19259.8" x2="42658.7" y2="19227" gradientUnits="userSpaceOnUse">
<stop stop-color="#783C74"/>
<stop offset="1" stop-color="#2F1F45"/>
</linearGradient>
<linearGradient id="paint62_linear" x1="9416.64" y1="9679.4" x2="10699.9" y2="12465.9" gradientUnits="userSpaceOnUse">
<stop stop-color="#CD8BD8"/>
<stop offset="1" stop-color="#8A70F1"/>
</linearGradient>
<linearGradient id="paint63_linear" x1="5942.43" y1="1095.51" x2="5966.22" y2="965.493" gradientUnits="userSpaceOnUse">
<stop stop-color="#783C74"/>
<stop offset="1" stop-color="#2F1F45"/>
</linearGradient>
<linearGradient id="paint64_linear" x1="1828.75" y1="1015.23" x2="1877.45" y2="974.638" gradientUnits="userSpaceOnUse">
<stop stop-color="#783C74"/>
<stop offset="1" stop-color="#2F1F45"/>
</linearGradient>
<linearGradient id="paint65_linear" x1="5836.41" y1="7395.77" x2="5790.88" y2="8589.7" gradientUnits="userSpaceOnUse">
<stop stop-color="#CD8BD8"/>
<stop offset="1" stop-color="#8A70F1"/>
</linearGradient>
</defs>
</svg>
