<svg width="636" height="666" viewBox="0 0 636 666" fill="none" xmlns="http://www.w3.org/2000/svg">
<path d="M521.749 124.32C521.749 124.32 468.464 137.64 410.739 124.32C376.143 126.636 358.564 83.25 285.297 102.12C233.122 115.558 240.893 137.64 215.36 158.73C215.36 158.73 134.984 226.07 65.9994 296C19.375 343.263 1.99986 624 266.425 639.36C266.425 639.36 722.628 679.293 734.89 436.23C737.852 377.511 720.392 265.547 684.935 216.45C657.771 178.824 521.749 124.32 521.749 124.32Z" fill="#E7EEF4"/>
<path d="M396.056 511.617C371.927 512.353 347.78 495.587 343.759 467.187C341.496 451.282 344.71 432.128 348.803 416.744C374.279 321.098 397.78 396.62 423.255 343.035C448.713 289.45 468.372 255.36 545.481 271.606C545.481 271.606 615.57 284.262 557.761 348.743C547.168 360.556 534.834 371.38 520.31 378.058C505.05 385.095 488.264 387.626 471.98 391.199C452.501 395.471 452.465 419.077 450.849 434.964C448.839 454.711 446.594 474.619 434.44 491.081C424.35 504.742 410.203 511.186 396.056 511.617Z" fill="#74CEBC"/>
<g opacity="0.8">
<path opacity="0.8" d="M378.786 500.057C378.552 499.931 378.409 499.662 378.462 499.374C378.534 498.997 386.541 460.761 404.315 421.303C414.764 398.11 426.487 379.028 439.162 364.577C455.051 346.464 472.519 335.639 491.047 332.39C491.388 332.336 491.711 332.551 491.765 332.892C491.819 333.233 491.603 333.557 491.262 333.61C449.88 340.863 421.766 385.58 405.446 421.806C387.744 461.138 379.755 499.249 379.683 499.626C379.611 499.967 379.288 500.182 378.947 500.11C378.893 500.11 378.84 500.092 378.786 500.057Z" fill="white"/>
</g>
<path d="M324.01 466.703C349.557 480.759 384.763 476.002 404.709 447.674C415.876 431.805 422.985 409.437 427.043 390.642C452.249 273.742 385.427 342.048 387.51 270.403C389.593 198.759 387.187 151.277 295.32 126.343C295.32 126.343 212.951 101.408 239.684 202.565C244.585 221.108 251.892 239.527 263.849 254.696C276.398 270.655 293.058 282.61 308.606 295.41C327.205 310.722 314.261 336.142 307.277 354.111C298.588 376.461 290.042 399.097 294.064 423.493C297.349 443.743 309.019 458.463 324.01 466.703Z" fill="url(#paint0_linear)"/>
<g opacity="0.8">
<path opacity="0.8" d="M348.947 463.759C349.27 463.759 349.575 463.543 349.665 463.202C349.79 462.753 362.214 417.21 364.799 364.99C366.325 334.293 364.207 307.311 358.516 284.8C351.37 256.581 338.552 235.344 320.419 221.647C320.096 221.396 319.611 221.467 319.378 221.791C319.126 222.114 319.198 222.598 319.521 222.832C360.042 253.385 365.697 316.951 363.309 364.9C360.724 416.959 348.354 462.34 348.228 462.789C348.121 463.184 348.354 463.597 348.749 463.705C348.803 463.759 348.875 463.759 348.947 463.759Z" fill="white"/>
</g>
<path d="M342.053 479.484C345.536 478.999 348.749 476.576 351.442 471.496C362.591 450.403 341.747 418.467 341.317 396.315C340.868 374.037 345.751 352.334 351.155 330.9C356.72 308.801 359.593 285.321 344.44 266.256C331.37 249.813 308.929 237.283 288.552 249.472C250.779 272.037 251.784 234.303 245.249 208.847C237.727 179.551 204.908 145.515 172.341 151.78C143.095 157.399 131.049 198.795 131.049 224.447C131.049 237.857 135.986 258.304 146.255 267.944C169.935 290.096 223.562 289.952 202.844 332.892C195.86 347.379 189.289 362.871 202.538 376.083C216.111 389.619 238.553 390.804 255.518 397.589C274.818 405.308 287.888 421.142 299.575 437.639C305.285 445.645 326.487 481.674 342.053 479.484Z" fill="url(#paint1_linear)"/>
<g opacity="0.8">
<path opacity="0.8" d="M344.081 472.77C344.153 472.77 344.225 472.752 344.297 472.734C344.692 472.591 344.889 472.16 344.746 471.783C344.584 471.316 327.618 424.732 301.873 371.614C286.757 340.396 271.604 313.074 256.847 290.383C238.373 261.984 220.474 240.801 203.616 227.409C203.292 227.158 202.826 227.212 202.556 227.535C202.305 227.858 202.359 228.325 202.682 228.594C240.599 258.699 276.811 323.36 300.527 372.278C326.236 425.342 343.166 471.855 343.345 472.303C343.453 472.609 343.758 472.788 344.081 472.77Z" fill="white"/>
</g>
<path d="M617.06 525.314L120.941 521.024V533.716C120.941 537.162 123.114 540.088 126.04 540.609L266.326 565.597C267.996 565.903 269.684 565.974 271.353 565.831L611.656 537.342C614.69 537.09 617.042 534.146 617.042 530.61V525.314H617.06Z" fill="#BFC8D6"/>
<path d="M434.494 504.975L119.164 528.187C113.527 528.6 108.931 524.184 108.931 518.331V283.544C108.931 277.692 113.527 272.935 119.164 272.935H434.494C439.144 272.935 442.896 277.225 442.896 282.521V494.761C442.896 500.057 439.144 504.634 434.494 504.975Z" fill="#BFC8D6"/>
<path d="M439.521 504.975L124.209 528.186C118.572 528.599 113.976 524.183 113.976 518.331V283.544C113.976 277.691 118.572 272.934 124.209 272.934H439.539C444.188 272.934 447.941 277.225 447.941 282.52V494.761C447.923 500.056 444.171 504.634 439.521 504.975Z" fill="white"/>
<path d="M429.7 490.004L136.004 510.181C131.408 510.504 127.674 506.878 127.674 502.085V296.523C127.674 291.73 131.408 287.852 136.004 287.816L429.7 286.542C433.542 286.524 436.63 290.042 436.63 294.404V481.638C436.63 486.001 433.542 489.752 429.7 490.004Z" fill="#D8DEE8"/>
<path d="M293.005 279.343C293.005 281.533 291.389 283.292 289.379 283.31C287.368 283.31 285.752 281.551 285.752 279.361C285.752 277.171 287.386 275.394 289.379 275.394C291.371 275.394 293.005 277.171 293.005 279.343Z" fill="white"/>
<path opacity="0.48" d="M124.191 528.186L437.923 505.101L439.521 504.975C441.658 504.814 443.597 503.772 445.069 502.157C422.502 500.918 408.462 492.912 399.432 484.636C381.263 468.013 384.423 451.623 364.836 440.691C340.402 427.066 321.192 444.335 302.646 427.281C291.407 416.941 296.919 409.24 283.095 393.802C267.781 376.694 257.799 382.456 242.413 367.054C222.952 347.595 232.682 332.443 215.914 318.477C195.573 301.531 173.634 317.221 154.263 300.957C145.915 293.938 141.337 283.759 138.931 272.916H124.191C118.554 272.916 113.958 277.674 113.958 283.526V518.313C113.976 524.183 118.554 528.599 124.191 528.186Z" fill="white"/>
<path d="M454.386 503.683L120.941 528.115L266.326 554.001C267.996 554.306 269.684 554.378 271.353 554.234L617.06 525.296L459.682 503.844C457.923 503.611 456.145 503.557 454.386 503.683Z" fill="url(#paint2_linear)"/>
<path d="M169.595 528.33L447.187 507.686L533.111 519.301L257.906 541.363L169.595 528.33Z" fill="#D8DEE8"/>
<path opacity="0.6" d="M341.586 463.364C341.586 467.223 338.534 470.526 334.62 470.742L238.086 476.055C233.49 476.307 229.666 473.075 229.666 468.839V452.862C229.666 448.625 233.544 445.071 238.14 444.945L334.566 442.001C338.462 441.876 341.586 444.928 341.586 448.787V463.364Z" fill="white"/>
<g opacity="0.9">
<path d="M424.063 506.16V522.55C424.063 527.845 457.151 532.136 497.959 532.136C538.766 532.136 571.854 527.845 571.854 522.55V506.16H424.063Z" fill="url(#paint3_linear)"/>
<path d="M571.837 506.16C571.837 511.456 538.749 515.746 497.941 515.746C457.134 515.746 424.046 511.456 424.046 506.16C424.046 500.864 457.134 496.574 497.941 496.574C538.749 496.574 571.837 500.882 571.837 506.16Z" fill="url(#paint4_linear)"/>
<path d="M497.959 516.41C461.819 516.41 424.027 512.964 424.027 506.304C424.027 505.945 424.153 505.298 424.53 505.298C424.907 505.298 424.745 505.801 424.745 506.16C424.745 510.379 454.817 515.082 497.976 515.082C541.136 515.082 571.207 510.379 571.207 506.16C571.207 505.801 571.261 505.46 571.638 505.46C571.997 505.46 571.908 505.945 571.908 506.322C571.89 512.964 534.098 516.41 497.959 516.41Z" fill="url(#paint5_linear)"/>
<path d="M490.975 506.699C491.693 506.196 492.465 505.693 493.291 505.209C494.117 504.724 495.176 504.275 496.469 503.88C497.761 503.485 499.395 503.162 501.334 502.911C503.291 502.66 505.714 502.534 508.623 502.516C511.477 502.498 514.152 502.588 516.666 502.785C519.161 502.983 521.37 503.27 523.273 503.665C525.176 504.06 526.72 504.526 527.923 505.101C529.107 505.675 529.826 506.322 530.041 507.076L538.353 507.165C538.964 507.165 539.484 507.219 539.951 507.309C540.418 507.399 540.633 507.524 540.633 507.668V508.35L529.933 508.242C529.556 509.086 528.605 509.84 527.061 510.54C525.535 511.24 523.578 511.833 521.19 512.353L517.294 511.815C516.953 511.761 516.666 511.689 516.432 511.617C516.199 511.528 516.091 511.456 516.091 511.348C516.091 511.222 516.397 511.061 516.989 510.899C517.599 510.738 518.264 510.522 519.036 510.271C519.79 510.02 520.526 509.732 521.262 509.391C521.98 509.05 522.465 508.655 522.734 508.171L497.492 507.919C496.828 508.404 496.074 508.889 495.266 509.355C494.44 509.822 493.345 510.253 491.998 510.63C490.634 511.007 488.946 511.312 486.917 511.545C484.889 511.779 482.339 511.904 479.251 511.922C476.935 511.94 474.691 511.851 472.483 511.653C470.275 511.474 468.318 511.186 466.612 510.809C464.907 510.432 463.489 509.984 462.393 509.427C461.298 508.871 460.688 508.242 460.562 507.542L453.704 507.47C453.094 507.47 452.573 507.417 452.088 507.327C451.621 507.237 451.37 507.111 451.37 506.968V506.286L460.742 506.375C461.155 505.657 461.998 505.029 463.309 504.491C464.602 503.952 466.199 503.485 468.067 503.054L471.208 503.485C472.16 503.611 472.627 503.773 472.627 503.952C472.627 504.042 472.429 504.167 472.034 504.311C471.639 504.455 471.172 504.634 470.634 504.832C470.095 505.029 469.575 505.262 469.072 505.532C468.569 505.801 468.192 506.106 467.923 506.447L490.975 506.699ZM467.869 507.632C468.049 508.081 468.48 508.476 469.108 508.799C469.736 509.122 470.526 509.391 471.496 509.607C472.447 509.822 473.524 509.966 474.709 510.073C475.894 510.163 477.151 510.217 478.444 510.217C479.952 510.217 481.28 510.145 482.411 510.02C483.524 509.894 484.53 509.732 485.373 509.517C486.217 509.302 486.971 509.068 487.6 508.781C488.228 508.494 488.803 508.189 489.305 507.865L467.869 507.632ZM522.824 507.022C522.644 506.573 522.177 506.16 521.459 505.819C520.741 505.478 519.826 505.191 518.73 504.957C517.617 504.724 516.325 504.544 514.853 504.437C513.38 504.329 511.765 504.275 509.969 504.275C508.389 504.275 507.025 504.347 505.876 504.491C504.745 504.616 503.758 504.796 502.914 505.029C502.07 505.262 501.352 505.514 500.777 505.819C500.185 506.124 499.646 506.447 499.144 506.788L522.824 507.022Z" fill="#FCB048"/>
<path d="M497.959 497.615C465.015 497.615 430.706 500.505 425.23 506.124C425.446 506.322 425.643 506.537 425.823 506.752C430.455 502.857 458.767 498.926 497.959 498.926C538.156 498.926 566.935 503.054 570.418 507.04C570.598 506.824 570.777 506.609 570.974 506.411C566.432 500.631 531.495 497.615 497.959 497.615Z" fill="url(#paint6_linear)"/>
<path d="M403.524 488.963V505.352C403.524 510.648 436.612 514.938 477.42 514.938C518.227 514.938 551.315 510.648 551.315 505.352V488.963H403.524Z" fill="url(#paint7_linear)"/>
<path d="M551.297 488.963C551.297 494.258 518.21 498.549 477.402 498.549C436.595 498.549 403.507 494.258 403.507 488.963C403.507 483.667 436.595 479.376 477.402 479.376C518.228 479.376 551.297 483.667 551.297 488.963Z" fill="url(#paint8_linear)"/>
<path d="M477.402 499.213C441.262 499.213 403.471 495.766 403.471 489.106C403.471 488.747 403.596 488.101 403.973 488.101C404.332 488.101 404.189 488.603 404.189 488.963C404.189 493.181 434.26 497.884 477.42 497.884C520.579 497.884 550.651 493.181 550.651 488.963C550.651 488.603 550.705 488.262 551.082 488.262C551.441 488.262 551.351 488.747 551.351 489.124C551.351 495.766 513.56 499.213 477.402 499.213Z" fill="url(#paint9_linear)"/>
<path d="M470.436 489.483C471.154 488.981 471.926 488.478 472.752 487.993C473.578 487.508 474.637 487.06 475.929 486.665C477.222 486.27 478.856 485.947 480.795 485.695C482.752 485.444 485.175 485.318 488.084 485.3C490.938 485.283 493.613 485.372 496.127 485.57C498.622 485.767 500.831 486.054 502.734 486.449C504.637 486.844 506.181 487.311 507.383 487.886C508.568 488.46 509.286 489.106 509.502 489.86L517.814 489.95C518.425 489.95 518.945 490.004 519.412 490.094C519.879 490.183 520.094 490.309 520.094 490.453V491.135L509.394 491.027C509.017 491.871 508.066 492.625 506.522 493.325C504.996 494.025 503.039 494.617 500.651 495.138L496.755 494.599C496.414 494.545 496.127 494.474 495.893 494.402C495.66 494.312 495.552 494.222 495.552 494.133C495.552 494.007 495.858 493.845 496.45 493.684C497.06 493.522 497.725 493.307 498.497 493.056C499.251 492.804 499.987 492.517 500.723 492.176C501.441 491.835 501.926 491.44 502.195 490.955L476.953 490.704C476.289 491.189 475.534 491.673 474.727 492.14C473.901 492.607 472.806 493.038 471.459 493.415C470.095 493.792 468.407 494.097 466.378 494.33C464.35 494.563 461.8 494.689 458.712 494.707C456.396 494.725 454.152 494.635 451.944 494.438C449.736 494.258 447.779 493.971 446.073 493.594C444.368 493.217 442.949 492.768 441.854 492.212C440.759 491.655 440.149 491.027 440.023 490.327L433.165 490.255C432.555 490.255 432.034 490.201 431.549 490.111C431.082 490.022 430.831 489.896 430.831 489.752V489.07L440.203 489.16C440.616 488.442 441.459 487.814 442.77 487.275C444.063 486.737 445.66 486.27 447.528 485.839L450.669 486.27C451.621 486.396 452.088 486.557 452.088 486.737C452.088 486.826 451.89 486.952 451.495 487.096C451.1 487.239 450.633 487.419 450.095 487.616C449.556 487.814 449.036 488.047 448.533 488.316C448.03 488.586 447.653 488.891 447.384 489.232L470.436 489.483ZM447.33 490.417C447.51 490.865 447.94 491.26 448.569 491.583C449.197 491.907 449.987 492.176 450.957 492.391C451.908 492.607 452.985 492.75 454.17 492.858C455.355 492.948 456.612 493.002 457.904 493.002C459.413 493.002 460.741 492.93 461.872 492.804C462.985 492.679 463.991 492.517 464.834 492.302C465.678 492.086 466.432 491.853 467.061 491.566C467.689 491.278 468.263 490.973 468.766 490.65L447.33 490.417ZM502.285 489.806C502.105 489.358 501.638 488.945 500.92 488.604C500.202 488.262 499.287 487.975 498.191 487.742C497.078 487.509 495.786 487.329 494.314 487.221C492.841 487.114 491.226 487.06 489.43 487.06C487.85 487.06 486.486 487.132 485.337 487.275C484.206 487.401 483.218 487.58 482.375 487.814C481.549 488.047 480.813 488.298 480.238 488.604C479.646 488.909 479.107 489.232 478.604 489.573L502.285 489.806Z" fill="#FCB048"/>
<path d="M477.42 480.4C444.476 480.4 410.167 483.29 404.691 488.909C404.907 489.106 405.104 489.322 405.284 489.537C409.916 485.642 438.228 481.71 477.42 481.71C517.617 481.71 546.396 485.839 549.879 489.824C550.058 489.609 550.238 489.393 550.435 489.196C545.893 483.416 510.956 480.4 477.42 480.4Z" fill="url(#paint10_linear)"/>
<path d="M421.244 471.801V488.191C421.244 493.486 454.332 497.777 495.139 497.777C535.947 497.777 569.035 493.486 569.035 488.191V471.801H421.244Z" fill="url(#paint11_linear)"/>
<path d="M569.017 471.801C569.017 477.096 535.93 481.387 495.122 481.387C454.314 481.387 421.227 477.096 421.227 471.801C421.227 466.505 454.314 462.215 495.122 462.215C535.947 462.197 569.017 466.505 569.017 471.801Z" fill="url(#paint12_linear)"/>
<path d="M495.139 482.051C458.999 482.051 421.208 478.604 421.208 471.945C421.208 471.585 421.334 470.939 421.711 470.939C422.07 470.939 421.926 471.442 421.926 471.801C421.926 476.019 451.998 480.723 495.157 480.723C538.317 480.723 568.388 476.019 568.388 471.801C568.388 471.442 568.442 471.101 568.819 471.101C569.178 471.101 569.088 471.585 569.088 471.962C569.07 478.605 531.279 482.051 495.139 482.051Z" fill="url(#paint13_linear)"/>
<path d="M488.156 472.321C488.874 471.819 489.646 471.316 490.471 470.832C491.297 470.347 492.357 469.898 493.649 469.503C494.942 469.108 496.576 468.785 498.515 468.534C500.471 468.282 502.895 468.157 505.804 468.139C508.658 468.121 511.333 468.211 513.847 468.408C516.342 468.606 518.55 468.893 520.453 469.288C522.356 469.683 523.9 470.149 525.103 470.724C526.288 471.298 527.006 471.944 527.222 472.698L535.534 472.788C536.144 472.788 536.665 472.842 537.132 472.932C537.599 473.022 537.814 473.147 537.814 473.291V473.973L527.114 473.865C526.737 474.709 525.785 475.463 524.241 476.163C522.715 476.863 520.759 477.456 518.371 477.976L514.475 477.438C514.134 477.384 513.847 477.312 513.613 477.24C513.38 477.15 513.272 477.061 513.272 476.971C513.272 476.845 513.577 476.684 514.17 476.522C514.78 476.36 515.444 476.145 516.216 475.894C516.97 475.642 517.706 475.355 518.443 475.014C519.161 474.673 519.645 474.278 519.915 473.793L494.673 473.542C494.008 474.027 493.254 474.511 492.446 474.978C491.62 475.445 490.525 475.876 489.179 476.253C487.814 476.63 486.127 476.935 484.098 477.168C482.069 477.402 479.52 477.527 476.432 477.545C474.116 477.563 471.872 477.473 469.664 477.276C467.456 477.096 465.499 476.809 463.793 476.432C462.087 476.055 460.669 475.607 459.574 475.05C458.479 474.494 457.868 473.865 457.743 473.165L450.885 473.093C450.274 473.093 449.754 473.04 449.269 472.95C448.802 472.86 448.551 472.734 448.551 472.591V471.909L457.922 471.998C458.335 471.28 459.179 470.652 460.49 470.113C461.782 469.575 463.38 469.108 465.247 468.677L468.389 469.108C469.341 469.234 469.807 469.395 469.807 469.575C469.807 469.665 469.61 469.79 469.215 469.934C468.82 470.078 468.353 470.257 467.815 470.455C467.276 470.652 466.755 470.885 466.253 471.155C465.75 471.424 465.373 471.729 465.104 472.07L488.156 472.321ZM465.05 473.255C465.229 473.704 465.66 474.099 466.289 474.422C466.917 474.745 467.707 475.014 468.676 475.23C469.628 475.445 470.705 475.589 471.89 475.696C473.075 475.786 474.332 475.84 475.624 475.84C477.132 475.84 478.461 475.768 479.592 475.642C480.705 475.517 481.71 475.355 482.554 475.14C483.398 474.924 484.152 474.691 484.78 474.404C485.409 474.117 485.983 473.811 486.486 473.488L465.05 473.255ZM520.004 472.645C519.825 472.196 519.358 471.783 518.64 471.442C517.922 471.101 517.006 470.814 515.911 470.58C514.798 470.347 513.505 470.167 512.033 470.06C510.561 469.952 508.945 469.898 507.15 469.898C505.57 469.898 504.206 469.97 503.057 470.113C501.926 470.239 500.938 470.419 500.094 470.652C499.269 470.885 498.532 471.137 497.958 471.442C497.366 471.747 496.827 472.07 496.324 472.411L520.004 472.645Z" fill="#FCB048"/>
<path d="M495.14 463.238C462.195 463.238 427.887 466.128 422.411 471.747C422.627 471.945 422.824 472.16 423.004 472.375C427.636 468.48 455.948 464.549 495.14 464.549C535.337 464.549 564.116 468.677 567.599 472.663C567.778 472.447 567.958 472.232 568.155 472.034C563.631 466.254 528.676 463.238 495.14 463.238Z" fill="url(#paint14_linear)"/>
<path d="M431.999 454.585V470.975C431.999 476.271 465.087 480.561 505.894 480.561C546.702 480.561 579.79 476.271 579.79 470.975V454.585H431.999Z" fill="url(#paint15_linear)"/>
<path d="M505.893 464.172C546.705 464.172 579.789 459.88 579.789 454.586C579.789 449.291 546.705 444.999 505.893 444.999C465.082 444.999 431.998 449.291 431.998 454.586C431.998 459.88 465.082 464.172 505.893 464.172Z" fill="url(#paint16_linear)"/>
<path d="M505.894 464.836C469.754 464.836 431.963 461.389 431.963 454.729C431.963 454.37 432.089 453.724 432.466 453.724C432.825 453.724 432.681 454.226 432.681 454.585C432.681 458.804 462.753 463.507 505.912 463.507C549.072 463.507 579.143 458.804 579.143 454.585C579.143 454.226 579.197 453.885 579.574 453.885C579.933 453.885 579.843 454.37 579.843 454.747C579.825 461.389 542.034 464.836 505.894 464.836Z" fill="url(#paint17_linear)"/>
<path d="M498.91 455.106C499.629 454.603 500.4 454.101 501.226 453.616C502.052 453.131 503.111 452.683 504.404 452.288C505.697 451.893 507.33 451.57 509.269 451.318C511.226 451.067 513.65 450.941 516.558 450.923C519.413 450.905 522.088 450.995 524.601 451.193C527.097 451.39 529.305 451.677 531.208 452.072C533.111 452.467 534.655 452.934 535.858 453.508C537.043 454.083 537.761 454.729 537.977 455.483L546.289 455.573C546.899 455.573 547.42 455.627 547.887 455.716C548.353 455.806 548.569 455.932 548.569 456.076V456.758L537.869 456.65C537.492 457.494 536.54 458.248 534.996 458.948C533.47 459.648 531.513 460.24 529.126 460.761L525.23 460.222C524.889 460.168 524.601 460.097 524.368 460.025C524.135 459.935 524.027 459.845 524.027 459.756C524.027 459.63 524.332 459.468 524.925 459.307C525.535 459.145 526.199 458.93 526.971 458.678C527.725 458.427 528.461 458.14 529.197 457.799C529.916 457.458 530.4 457.063 530.67 456.578L505.427 456.327C504.763 456.812 504.009 457.296 503.201 457.763C502.375 458.23 501.28 458.661 499.934 459.038C498.569 459.414 496.882 459.72 494.853 459.953C492.824 460.186 490.275 460.312 487.187 460.33C484.871 460.348 482.627 460.258 480.419 460.061C478.21 459.881 476.253 459.594 474.548 459.217C472.842 458.84 471.424 458.391 470.329 457.835C469.234 457.278 468.623 456.65 468.498 455.95L461.64 455.878C461.029 455.878 460.509 455.824 460.024 455.734C459.557 455.645 459.306 455.519 459.306 455.375V454.693L468.677 454.783C469.09 454.065 469.934 453.437 471.245 452.898C472.537 452.36 474.135 451.893 476.002 451.462L479.144 451.893C480.095 452.018 480.562 452.18 480.562 452.36C480.562 452.449 480.365 452.575 479.97 452.719C479.575 452.862 479.108 453.042 478.569 453.239C478.031 453.437 477.51 453.67 477.008 453.939C476.505 454.209 476.128 454.514 475.859 454.855L498.91 455.106ZM475.805 456.04C475.984 456.488 476.415 456.883 477.043 457.206C477.672 457.53 478.462 457.799 479.431 458.014C480.383 458.23 481.46 458.373 482.645 458.481C483.83 458.571 485.086 458.625 486.379 458.625C487.887 458.625 489.216 458.553 490.347 458.427C491.46 458.301 492.465 458.14 493.309 457.924C494.153 457.709 494.907 457.476 495.535 457.188C496.164 456.901 496.738 456.596 497.241 456.273L475.805 456.04ZM530.759 455.429C530.58 454.98 530.113 454.568 529.395 454.226C528.677 453.885 527.761 453.598 526.666 453.365C525.553 453.131 524.26 452.952 522.788 452.844C521.316 452.737 519.7 452.683 517.905 452.683C516.325 452.683 514.961 452.754 513.812 452.898C512.68 453.024 511.693 453.203 510.849 453.437C510.023 453.67 509.287 453.921 508.713 454.226C508.12 454.532 507.582 454.855 507.079 455.196L530.759 455.429Z" fill="#FCB048"/>
<path d="M505.894 446.023C472.95 446.023 438.642 448.913 433.166 454.532C433.381 454.729 433.579 454.945 433.758 455.16C438.39 451.265 466.703 447.333 505.894 447.333C546.092 447.333 574.87 451.462 578.353 455.447C578.533 455.232 578.712 455.016 578.91 454.819C574.386 449.039 539.431 446.023 505.894 446.023Z" fill="url(#paint18_linear)"/>
<path d="M424.063 436.006V452.395C424.063 457.691 457.151 461.981 497.959 461.981C538.766 461.981 571.854 457.691 571.854 452.395V436.006H424.063Z" fill="url(#paint19_linear)"/>
<path d="M571.837 436.006C571.837 441.301 538.749 445.592 497.941 445.592C457.134 445.592 424.046 441.301 424.046 436.006C424.046 430.71 457.134 426.42 497.941 426.42C538.749 426.42 571.837 430.71 571.837 436.006Z" fill="url(#paint20_linear)"/>
<path d="M497.959 446.256C461.819 446.256 424.027 442.809 424.027 436.149C424.027 435.79 424.153 435.144 424.53 435.144C424.907 435.144 424.745 435.647 424.745 436.006C424.745 440.224 454.817 444.928 497.976 444.928C541.136 444.928 571.207 440.224 571.207 436.006C571.207 435.647 571.261 435.306 571.638 435.306C571.997 435.306 571.908 435.79 571.908 436.167C571.89 442.809 534.098 446.256 497.959 446.256Z" fill="url(#paint21_linear)"/>
<path d="M490.975 436.544C491.693 436.042 492.465 435.539 493.291 435.054C494.117 434.57 495.176 434.121 496.469 433.726C497.761 433.331 499.395 433.008 501.334 432.757C503.291 432.505 505.714 432.38 508.623 432.362C511.477 432.344 514.152 432.433 516.666 432.631C519.161 432.828 521.37 433.116 523.273 433.51C525.176 433.905 526.72 434.372 527.923 434.947C529.107 435.521 529.826 436.167 530.041 436.921L538.353 437.011C538.964 437.011 539.484 437.065 539.951 437.155C540.418 437.244 540.633 437.37 540.633 437.514V438.196L529.933 438.088C529.556 438.932 528.605 439.686 527.061 440.386C525.535 441.086 523.578 441.678 521.19 442.199L517.294 441.66C516.953 441.607 516.666 441.535 516.432 441.463C516.199 441.373 516.091 441.283 516.091 441.194C516.091 441.068 516.397 440.907 516.989 440.745C517.599 440.583 518.264 440.368 519.036 440.117C519.79 439.865 520.526 439.578 521.262 439.237C521.98 438.896 522.465 438.501 522.734 438.016L497.492 437.765C496.828 438.25 496.074 438.734 495.266 439.201C494.44 439.668 493.345 440.099 491.998 440.476C490.634 440.853 488.946 441.158 486.917 441.391C484.889 441.625 482.339 441.75 479.251 441.768C476.935 441.786 474.691 441.696 472.483 441.499C470.275 441.319 468.318 441.032 466.612 440.655C464.907 440.278 463.489 439.829 462.393 439.273C461.298 438.716 460.688 438.088 460.562 437.388L453.704 437.316C453.094 437.316 452.573 437.262 452.088 437.173C451.621 437.083 451.37 436.957 451.37 436.814V436.131L460.742 436.221C461.155 435.503 461.998 434.875 463.309 434.336C464.602 433.798 466.199 433.331 468.067 432.9L471.208 433.331C472.16 433.457 472.627 433.618 472.627 433.798C472.627 433.887 472.429 434.013 472.034 434.157C471.639 434.3 471.172 434.48 470.634 434.677C470.095 434.875 469.575 435.108 469.072 435.377C468.569 435.647 468.192 435.952 467.923 436.293L490.975 436.544ZM467.869 437.478C468.049 437.927 468.48 438.322 469.108 438.645C469.736 438.968 470.526 439.237 471.496 439.452C472.447 439.668 473.524 439.811 474.709 439.919C475.894 440.009 477.151 440.063 478.444 440.063C479.952 440.063 481.28 439.991 482.411 439.865C483.524 439.74 484.53 439.578 485.373 439.363C486.217 439.147 486.971 438.914 487.6 438.627C488.228 438.339 488.803 438.034 489.305 437.711L467.869 437.478ZM522.824 436.867C522.644 436.419 522.177 436.006 521.459 435.665C520.741 435.324 519.826 435.036 518.73 434.803C517.617 434.57 516.325 434.39 514.853 434.282C513.38 434.175 511.765 434.121 509.969 434.121C508.389 434.121 507.025 434.193 505.876 434.336C504.745 434.462 503.758 434.641 502.914 434.875C502.07 435.108 501.352 435.359 500.777 435.665C500.185 435.97 499.646 436.293 499.144 436.634L522.824 436.867Z" fill="#FCB048"/>
<path d="M497.959 427.461C465.015 427.461 430.706 430.351 425.23 435.97C425.446 436.167 425.643 436.383 425.823 436.598C430.455 432.703 458.767 428.771 497.959 428.771C538.156 428.771 566.935 432.9 570.418 436.885C570.598 436.67 570.777 436.454 570.974 436.257C566.432 430.459 531.495 427.461 497.959 427.461Z" fill="url(#paint22_linear)"/>
<path d="M403.524 418.79V435.18C403.524 440.476 436.612 444.766 477.42 444.766C518.227 444.766 551.315 440.476 551.315 435.18V418.79H403.524Z" fill="url(#paint23_linear)"/>
<path d="M477.402 428.376C518.213 428.376 551.297 424.084 551.297 418.79C551.297 413.496 518.213 409.204 477.402 409.204C436.591 409.204 403.507 413.496 403.507 418.79C403.507 424.084 436.591 428.376 477.402 428.376Z" fill="url(#paint24_linear)"/>
<path d="M477.402 429.04C441.262 429.04 403.471 425.594 403.471 418.934C403.471 418.575 403.596 417.928 403.973 417.928C404.332 417.928 404.189 418.431 404.189 418.79C404.189 423.009 434.26 427.712 477.42 427.712C520.579 427.712 550.651 423.009 550.651 418.79C550.651 418.431 550.705 418.09 551.082 418.09C551.441 418.09 551.351 418.575 551.351 418.952C551.351 425.594 513.56 429.04 477.402 429.04Z" fill="url(#paint25_linear)"/>
<path d="M470.436 419.329C471.154 418.826 471.926 418.323 472.752 417.839C473.578 417.354 474.637 416.905 475.929 416.51C477.222 416.115 478.856 415.792 480.795 415.541C482.752 415.29 485.175 415.164 488.084 415.146C490.938 415.128 493.613 415.218 496.127 415.415C498.622 415.613 500.831 415.9 502.734 416.295C504.637 416.69 506.181 417.157 507.383 417.731C508.568 418.305 509.286 418.952 509.502 419.706L517.814 419.795C518.425 419.795 518.945 419.849 519.412 419.939C519.879 420.029 520.094 420.155 520.094 420.298V420.98L509.394 420.873C509.017 421.716 508.066 422.47 506.522 423.17C504.996 423.87 503.039 424.463 500.651 424.983L496.755 424.445C496.414 424.391 496.127 424.319 495.893 424.247C495.66 424.158 495.552 424.068 495.552 423.978C495.552 423.853 495.858 423.691 496.45 423.529C497.06 423.368 497.725 423.152 498.497 422.901C499.251 422.65 499.987 422.363 500.723 422.021C501.441 421.68 501.926 421.285 502.195 420.801L476.953 420.549C476.289 421.034 475.534 421.519 474.727 421.986C473.901 422.452 472.806 422.883 471.459 423.26C470.095 423.637 468.407 423.942 466.378 424.176C464.35 424.409 461.8 424.535 458.712 424.553C456.396 424.571 454.152 424.481 451.944 424.283C449.736 424.104 447.779 423.817 446.073 423.44C444.368 423.063 442.949 422.614 441.854 422.057C440.759 421.501 440.149 420.873 440.023 420.172L433.165 420.101C432.555 420.101 432.034 420.047 431.549 419.957C431.082 419.867 430.831 419.742 430.831 419.598V418.916L440.203 419.006C440.616 418.288 441.459 417.659 442.77 417.121C444.063 416.582 445.66 416.115 447.528 415.685L450.669 416.115C451.621 416.241 452.088 416.403 452.088 416.582C452.088 416.672 451.89 416.798 451.495 416.941C451.1 417.085 450.633 417.264 450.095 417.462C449.556 417.659 449.036 417.893 448.533 418.162C448.03 418.431 447.653 418.736 447.384 419.077L470.436 419.329ZM447.33 420.262C447.51 420.711 447.94 421.106 448.569 421.429C449.197 421.752 449.987 422.021 450.957 422.237C451.908 422.452 452.985 422.596 454.17 422.704C455.355 422.793 456.612 422.847 457.904 422.847C459.413 422.847 460.741 422.775 461.872 422.65C462.985 422.524 463.991 422.363 464.834 422.147C465.678 421.932 466.432 421.698 467.061 421.411C467.689 421.124 468.263 420.819 468.766 420.496L447.33 420.262ZM502.285 419.652C502.105 419.203 501.638 418.79 500.92 418.449C500.202 418.108 499.287 417.821 498.191 417.587C497.078 417.354 495.786 417.175 494.314 417.067C492.841 416.959 491.226 416.905 489.43 416.905C487.85 416.905 486.486 416.977 485.337 417.121C484.206 417.246 483.218 417.426 482.375 417.659C481.549 417.893 480.813 418.144 480.238 418.449C479.646 418.754 479.107 419.077 478.604 419.418L502.285 419.652Z" fill="#FCB048"/>
<path d="M477.42 410.245C444.476 410.245 410.167 413.135 404.691 418.754C404.907 418.952 405.104 419.167 405.284 419.383C409.916 415.487 438.228 411.556 477.42 411.556C517.617 411.556 546.396 415.685 549.879 419.67C550.058 419.454 550.238 419.239 550.435 419.041C545.893 413.261 510.956 410.245 477.42 410.245Z" fill="url(#paint26_linear)"/>
<path d="M421.244 401.629V418.018C421.244 423.314 454.332 427.604 495.139 427.604C535.947 427.604 569.035 423.314 569.035 418.018V401.629H421.244Z" fill="url(#paint27_linear)"/>
<path d="M495.139 411.215C535.951 411.215 569.035 406.923 569.035 401.629C569.035 396.334 535.951 392.042 495.139 392.042C454.328 392.042 421.244 396.334 421.244 401.629C421.244 406.923 454.328 411.215 495.139 411.215Z" fill="url(#paint28_linear)"/>
<path d="M495.139 411.879C458.999 411.879 421.208 408.432 421.208 401.772C421.208 401.413 421.334 400.767 421.711 400.767C422.07 400.767 421.926 401.27 421.926 401.629C421.926 405.847 451.998 410.551 495.157 410.551C538.317 410.551 568.388 405.847 568.388 401.629C568.388 401.27 568.442 400.929 568.819 400.929C569.178 400.929 569.088 401.413 569.088 401.79C569.07 408.432 531.279 411.879 495.139 411.879Z" fill="url(#paint29_linear)"/>
<path d="M488.156 402.167C488.874 401.665 489.646 401.162 490.471 400.677C491.297 400.193 492.357 399.744 493.649 399.349C494.942 398.954 496.576 398.631 498.515 398.379C500.471 398.128 502.895 398.002 505.804 397.985C508.658 397.967 511.333 398.056 513.847 398.254C516.342 398.451 518.55 398.738 520.453 399.133C522.356 399.528 523.9 399.995 525.103 400.57C526.288 401.144 527.006 401.79 527.222 402.544L535.534 402.634C536.144 402.634 536.665 402.688 537.132 402.778C537.599 402.867 537.814 402.993 537.814 403.137V403.819L527.114 403.711C526.737 404.555 525.785 405.309 524.241 406.009C522.715 406.709 520.759 407.301 518.371 407.822L514.475 407.283C514.134 407.23 513.847 407.158 513.613 407.086C513.38 406.996 513.272 406.906 513.272 406.817C513.272 406.691 513.577 406.529 514.17 406.368C514.78 406.206 515.444 405.991 516.216 405.74C516.97 405.488 517.706 405.201 518.443 404.86C519.161 404.519 519.645 404.124 519.915 403.639L494.673 403.388C494.008 403.873 493.254 404.357 492.446 404.824C491.62 405.291 490.525 405.722 489.179 406.099C487.814 406.476 486.127 406.781 484.098 407.014C482.069 407.248 479.52 407.373 476.432 407.391C474.116 407.409 471.872 407.319 469.664 407.122C467.456 406.942 465.499 406.655 463.793 406.278C462.087 405.901 460.669 405.452 459.574 404.896C458.479 404.339 457.868 403.711 457.743 403.011L450.885 402.939C450.274 402.939 449.754 402.885 449.269 402.796C448.802 402.706 448.551 402.58 448.551 402.437V401.754L457.922 401.844C458.335 401.126 459.179 400.498 460.49 399.959C461.782 399.421 463.38 398.954 465.247 398.523L468.389 398.954C469.341 399.08 469.807 399.241 469.807 399.421C469.807 399.51 469.61 399.636 469.215 399.78C468.82 399.923 468.353 400.103 467.815 400.3C467.276 400.498 466.755 400.731 466.253 401C465.75 401.27 465.373 401.575 465.104 401.916L488.156 402.167ZM465.05 403.101C465.229 403.55 465.66 403.944 466.289 404.268C466.917 404.591 467.707 404.86 468.676 405.075C469.628 405.291 470.705 405.434 471.89 405.542C473.075 405.632 474.332 405.686 475.624 405.686C477.132 405.686 478.461 405.614 479.592 405.488C480.705 405.363 481.71 405.201 482.554 404.986C483.398 404.77 484.152 404.537 484.78 404.25C485.409 403.962 485.983 403.657 486.486 403.334L465.05 403.101ZM520.004 402.49C519.825 402.042 519.358 401.629 518.64 401.288C517.922 400.947 517.006 400.659 515.911 400.426C514.798 400.193 513.505 400.013 512.033 399.905C510.561 399.798 508.945 399.744 507.15 399.744C505.57 399.744 504.206 399.816 503.057 399.959C501.926 400.085 500.938 400.264 500.094 400.498C499.269 400.731 498.532 400.982 497.958 401.288C497.366 401.593 496.827 401.916 496.324 402.257L520.004 402.49Z" fill="#FCB048"/>
<path d="M495.14 393.084C462.195 393.084 427.887 395.974 422.411 401.593C422.627 401.79 422.824 402.006 423.004 402.221C427.636 398.326 455.948 394.394 495.14 394.394C535.337 394.394 564.116 398.523 567.599 402.508C567.778 402.293 567.958 402.077 568.155 401.88C563.631 396.082 528.676 393.084 495.14 393.084Z" fill="url(#paint30_linear)"/>
<path d="M412.034 384.413V400.803C412.034 406.099 445.122 410.389 485.929 410.389C526.737 410.389 559.825 406.099 559.825 400.803V384.413H412.034Z" fill="url(#paint31_linear)"/>
<path d="M485.912 393.999C526.723 393.999 559.807 389.707 559.807 384.413C559.807 379.119 526.723 374.827 485.912 374.827C445.101 374.827 412.017 379.119 412.017 384.413C412.017 389.707 445.101 393.999 485.912 393.999Z" fill="url(#paint32_linear)"/>
<path d="M485.912 394.663C449.772 394.663 411.98 391.217 411.98 384.557C411.98 384.198 412.106 383.552 412.483 383.552C412.842 383.552 412.699 384.054 412.699 384.413C412.699 388.632 442.77 393.335 485.93 393.335C529.089 393.335 559.161 388.632 559.161 384.413C559.161 384.054 559.215 383.713 559.592 383.713C559.951 383.713 559.861 384.198 559.861 384.575C559.843 391.217 522.052 394.663 485.912 394.663Z" fill="url(#paint33_linear)"/>
<path d="M478.928 384.952C479.646 384.449 480.418 383.946 481.244 383.462C482.07 382.977 483.129 382.528 484.422 382.133C485.714 381.738 487.348 381.415 489.287 381.164C491.244 380.913 493.667 380.787 496.576 380.769C499.43 380.751 502.105 380.841 504.619 381.038C507.114 381.236 509.323 381.523 511.226 381.918C513.129 382.313 514.673 382.78 515.876 383.354C517.06 383.928 517.779 384.575 517.994 385.329L526.306 385.418C526.917 385.418 527.437 385.472 527.904 385.562C528.371 385.652 528.586 385.777 528.586 385.921V386.603L517.886 386.495C517.509 387.339 516.558 388.093 515.014 388.793C513.488 389.493 511.531 390.086 509.143 390.606L505.247 390.068C504.906 390.014 504.619 389.942 504.386 389.87C504.152 389.781 504.044 389.691 504.044 389.601C504.044 389.475 504.35 389.314 504.942 389.152C505.552 388.991 506.217 388.775 506.989 388.524C507.743 388.273 508.479 387.985 509.215 387.644C509.933 387.303 510.418 386.908 510.687 386.424L485.445 386.172C484.781 386.657 484.027 387.142 483.219 387.608C482.393 388.075 481.298 388.506 479.951 388.883C478.587 389.26 476.899 389.565 474.871 389.799C472.842 390.032 470.292 390.158 467.204 390.176C464.889 390.194 462.644 390.104 460.436 389.906C458.228 389.727 456.271 389.44 454.565 389.063C452.86 388.686 451.442 388.237 450.346 387.68C449.251 387.124 448.641 386.496 448.515 385.795L441.657 385.724C441.047 385.724 440.526 385.67 440.041 385.58C439.575 385.49 439.323 385.365 439.323 385.221V384.539L448.695 384.629C449.108 383.91 449.952 383.282 451.262 382.744C452.555 382.205 454.153 381.738 456.02 381.308L459.161 381.738C460.113 381.864 460.58 382.026 460.58 382.205C460.58 382.295 460.382 382.421 459.987 382.564C459.592 382.708 459.126 382.887 458.587 383.085C458.048 383.282 457.528 383.516 457.025 383.785C456.522 384.054 456.145 384.359 455.876 384.7L478.928 384.952ZM455.822 385.885C456.002 386.334 456.433 386.729 457.061 387.052C457.689 387.375 458.479 387.644 459.449 387.86C460.4 388.075 461.477 388.219 462.662 388.327C463.847 388.416 465.104 388.47 466.397 388.47C467.905 388.47 469.233 388.398 470.364 388.273C471.477 388.147 472.483 387.985 473.327 387.77C474.17 387.555 474.924 387.321 475.553 387.034C476.181 386.747 476.756 386.442 477.258 386.118L455.822 385.885ZM510.795 385.275C510.615 384.826 510.148 384.413 509.43 384.072C508.712 383.731 507.797 383.444 506.701 383.21C505.588 382.977 504.296 382.797 502.824 382.69C501.351 382.582 499.736 382.528 497.94 382.528C496.36 382.528 494.996 382.6 493.847 382.744C492.716 382.869 491.729 383.049 490.885 383.282C490.059 383.516 489.323 383.767 488.748 384.072C488.156 384.377 487.617 384.7 487.115 385.041L510.795 385.275Z" fill="#FCB048"/>
<path d="M485.93 375.868C452.985 375.868 418.677 378.758 413.201 384.377C413.417 384.575 413.614 384.79 413.794 385.006C418.426 381.11 446.738 377.179 485.93 377.179C526.127 377.179 554.906 381.307 558.389 385.293C558.568 385.077 558.748 384.862 558.945 384.664C554.403 378.884 519.448 375.868 485.93 375.868Z" fill="url(#paint34_linear)"/>
</g>
<path d="M490.543 258.483C490.543 258.483 518.227 289.611 494.619 339.606C492.428 344.256 485.983 344.74 483.093 340.486L464.691 313.325C461.746 308.963 460.759 303.578 461.998 298.461L468.371 272.216L490.543 258.483Z" fill="#FFA585"/>
<path d="M428.712 209.494C428.712 209.494 392.088 189.658 348.803 224.07C344.763 227.284 345.769 233.657 350.58 235.488L381.226 247.192C386.145 249.077 391.621 248.79 396.307 246.402L420.4 234.195L428.712 209.494Z" fill="#FFA585"/>
<path d="M493.272 255.037C493.272 255.037 520.955 286.165 497.347 336.16C495.157 340.809 488.711 341.294 485.821 337.039L467.419 309.879C464.475 305.516 463.487 300.131 464.726 295.015L471.099 268.77L493.272 255.037Z" fill="url(#paint35_linear)"/>
<path d="M431.441 206.047C431.441 206.047 394.817 186.211 351.531 220.624C347.492 223.837 348.497 230.21 353.309 232.041L383.955 243.745C388.874 245.63 394.35 245.343 399.036 242.955L423.129 230.748L431.441 206.047Z" fill="url(#paint36_linear)"/>
<path d="M460.382 127.725C499.232 88.5008 563.595 102.683 563.631 102.754C563.72 102.772 592.23 162.174 562.93 208.973C536.36 251.41 477.276 282.233 465.911 287.888C464.691 288.498 462.716 289.324 461.98 288.175C447.886 265.718 428.964 251.518 406.271 244.05C405.014 243.637 405.409 241.555 405.714 240.263C408.569 228.092 425.068 163.358 460.382 127.725Z" fill="url(#paint37_linear)"/>
<g opacity="0.3">
<path opacity="0.3" d="M485.391 187.054C507.132 165.279 527.527 174.219 548.532 155.244C556.198 148.315 564.583 137.095 569.304 117.708C575.803 138.334 583.146 176.661 562.913 208.973C536.342 251.41 477.258 282.233 465.894 287.888C464.673 288.498 462.698 289.324 461.962 288.175C454.835 276.83 446.486 267.603 437.043 260.279C445.212 255.432 451.082 249.992 455.427 244.804C472.949 223.873 465.589 206.891 485.391 187.054Z" fill="url(#paint38_linear)"/>
</g>
<path d="M537.975 135.121C523.02 123.273 504.583 112.538 488.102 109.163C519.232 95.9686 553.236 100.815 561.656 102.359C562.894 102.593 563.954 103.418 564.456 104.585C567.885 112.43 580.381 144.42 574.654 177.738C568.765 164.077 552.948 146.969 537.975 135.121Z" fill="url(#paint39_linear)"/>
<path opacity="0.3" d="M569.304 117.708C569.339 117.798 569.357 117.905 569.393 117.995C569.447 118.157 569.501 118.318 569.555 118.498C569.609 118.659 569.663 118.839 569.716 119C569.77 119.162 569.806 119.324 569.86 119.485C569.914 119.665 569.968 119.844 570.022 120.024C570.076 120.185 570.111 120.329 570.165 120.49C570.219 120.688 570.273 120.867 570.327 121.065C570.363 121.208 570.417 121.37 570.453 121.514C570.506 121.711 570.578 121.926 570.632 122.124C570.668 122.268 570.722 122.411 570.758 122.555C570.812 122.77 570.883 122.986 570.937 123.201C570.973 123.345 571.009 123.488 571.045 123.632C571.099 123.865 571.171 124.081 571.225 124.314C571.26 124.458 571.296 124.583 571.332 124.727C571.386 124.96 571.458 125.194 571.512 125.445C571.548 125.589 571.584 125.714 571.62 125.858C571.691 126.109 571.745 126.36 571.817 126.612C571.853 126.737 571.889 126.881 571.907 127.007C571.979 127.258 572.032 127.527 572.104 127.779C572.14 127.904 572.158 128.03 572.194 128.156C572.266 128.425 572.32 128.694 572.392 128.963C572.427 129.089 572.445 129.215 572.481 129.34C572.553 129.628 572.607 129.897 572.679 130.184C572.715 130.31 572.733 130.435 572.769 130.543C572.84 130.83 572.894 131.118 572.966 131.405C572.984 131.531 573.02 131.638 573.038 131.764C573.11 132.051 573.164 132.356 573.235 132.661C573.253 132.769 573.289 132.895 573.307 133.003C573.361 133.308 573.433 133.613 573.487 133.918C573.505 134.026 573.523 134.151 573.558 134.259C573.612 134.582 573.684 134.887 573.738 135.211C573.756 135.318 573.774 135.426 573.792 135.534C573.846 135.857 573.918 136.18 573.971 136.503C573.989 136.611 574.007 136.719 574.025 136.826C574.079 137.167 574.151 137.49 574.205 137.831C574.223 137.939 574.241 138.029 574.259 138.137C574.313 138.478 574.366 138.819 574.438 139.16C574.456 139.25 574.474 139.357 574.492 139.447C574.546 139.806 574.6 140.147 574.654 140.506C574.672 140.596 574.69 140.704 574.69 140.793C574.743 141.153 574.797 141.512 574.851 141.871C574.869 141.96 574.869 142.05 574.887 142.158C574.941 142.517 574.995 142.894 575.031 143.253C575.049 143.343 575.049 143.432 575.067 143.522C575.12 143.899 575.156 144.276 575.21 144.653C575.228 144.743 575.228 144.833 575.246 144.922C575.3 145.299 575.336 145.694 575.372 146.071C575.39 146.161 575.39 146.233 575.39 146.323C575.426 146.717 575.479 147.094 575.515 147.489C575.515 147.561 575.533 147.651 575.533 147.723C575.569 148.118 575.605 148.513 575.641 148.926C575.641 148.997 575.659 149.069 575.659 149.141C575.695 149.554 575.731 149.949 575.767 150.362C575.767 150.433 575.785 150.505 575.785 150.577C575.821 150.99 575.839 151.403 575.874 151.816C575.874 151.888 575.874 151.941 575.892 152.013C575.928 152.426 575.946 152.857 575.964 153.27C575.964 153.342 575.964 153.395 575.982 153.467C576 153.898 576.018 154.329 576.036 154.76C576.036 154.814 576.036 154.867 576.036 154.939C576.054 155.37 576.072 155.819 576.09 156.25C576.09 156.304 576.09 156.357 576.09 156.411C576.108 156.86 576.108 157.309 576.126 157.758C576.126 157.811 576.126 157.847 576.126 157.901C576.126 158.35 576.144 158.817 576.144 159.266C576.144 159.301 576.144 159.337 576.144 159.373C576.144 159.84 576.144 160.307 576.144 160.773C576.144 160.809 576.144 160.827 576.144 160.863C576.144 161.33 576.126 161.815 576.126 162.281C576.126 162.299 576.126 162.335 576.126 162.353C576.108 162.838 576.108 163.323 576.09 163.807C576.09 163.825 576.09 163.825 576.09 163.843C575.928 168.403 575.479 173.052 574.672 177.738C570.901 169.013 563.074 158.871 554.025 149.608C559.95 142.589 565.695 132.536 569.304 117.708Z" fill="url(#paint40_linear)"/>
<path d="M465.93 154.365C452.178 171.724 456.648 198.166 475.93 213.425C495.193 228.702 521.98 226.997 535.732 209.655C549.484 192.296 545.014 165.854 525.732 150.595C506.45 135.318 479.682 137.006 465.93 154.365Z" fill="url(#paint41_linear)"/>
<path d="M485.39 187.055C503.128 169.283 519.968 171.975 536.988 163.251C546.072 178.043 546.162 196.479 535.713 209.655C521.961 227.014 495.193 228.702 475.911 213.425C474.331 212.169 472.859 210.858 471.477 209.458C474.044 202.17 477.635 194.827 485.39 187.055Z" fill="url(#paint42_linear)"/>
<path d="M468.838 156.681C456.235 172.586 460.328 196.82 477.994 210.822C495.66 224.825 520.202 223.263 532.805 207.358C545.408 191.453 541.315 167.218 523.649 153.216C505.983 139.214 481.441 140.758 468.838 156.681Z" fill="url(#paint43_linear)"/>
<path d="M472.949 159.93C461.961 173.788 465.534 194.899 480.92 207.088C496.306 219.277 517.688 217.931 528.658 204.073C539.645 190.214 536.072 169.103 520.686 156.914C505.318 144.725 483.936 146.089 472.949 159.93Z" fill="url(#paint44_linear)"/>
<path d="M404.943 243.153C401.191 247.892 411.137 262.02 427.169 274.711C443.201 287.403 459.233 293.866 462.986 289.127C466.738 284.387 456.792 270.26 440.76 257.568C424.727 244.876 408.695 238.414 404.943 243.153Z" fill="url(#paint45_linear)"/>
<path d="M431.172 257.101L443.632 266.974C450.256 272.216 453.039 280.977 450.669 289.091L448.407 296.792C447.581 299.628 444.134 300.723 441.836 298.892L400.526 266.149C398.21 264.318 398.497 260.727 401.065 259.273L408.049 255.324C415.391 251.141 424.547 251.859 431.172 257.101Z" fill="url(#paint46_linear)"/>
<path d="M398.533 261.876C394.996 266.346 402.842 278.463 416.073 288.947C429.305 299.431 442.895 304.296 446.432 299.826C449.969 295.356 442.123 283.238 428.892 272.755C415.66 262.271 402.07 257.406 398.533 261.876Z" fill="#55A895"/>
<path d="M404.279 266.418C401.586 269.811 407.564 279.02 417.6 286.99C427.654 294.961 437.977 298.659 440.67 295.266C443.363 291.873 437.384 282.664 427.348 274.694C417.313 266.741 406.971 263.025 404.279 266.418Z" fill="#66C4B1"/>
<g opacity="0.3">
<path opacity="0.3" d="M485.391 187.054C500.49 171.939 514.924 171.616 529.358 166.5C536.953 178.402 537.132 193.409 528.658 204.09C517.671 217.949 496.307 219.295 480.921 207.106C478.677 205.329 476.684 203.354 474.942 201.236C477.312 196.605 480.544 191.919 485.391 187.054Z" fill="url(#paint47_linear)"/>
</g>
<path d="M174.258 254.091C174.258 254.916 173.582 255.592 172.758 255.592H163.916C163.091 255.592 162.415 254.916 162.415 254.091V253.78C162.415 252.956 163.091 252.28 163.916 252.28H172.758C173.582 252.28 174.258 252.956 174.258 253.78V254.091Z" fill="white"/>
<path d="M173.298 257.241C173.298 257.89 172.771 258.431 172.109 258.431H164.537C163.888 258.431 163.348 257.904 163.348 257.241C163.348 256.592 163.875 256.052 164.537 256.052H172.109C172.771 256.065 173.298 256.592 173.298 257.241Z" fill="white"/>
<path d="M165.984 242.979C167.62 249.765 167.62 249.901 167.62 249.901H170.622C170.622 249.901 170.622 249.698 172.285 242.803C169.445 243.952 167.242 243.52 165.984 242.979Z" fill="white"/>
<path d="M169.121 222.349C163.091 222.349 158.21 227.23 158.21 233.259C158.21 235.246 158.737 237.098 159.67 238.694C161.103 241.167 162.077 243.912 162.536 246.737C162.59 247.075 162.644 247.548 162.699 247.886C162.874 248.981 163.807 249.914 164.916 249.914H166.538C166.43 249.441 165.362 244.993 164.645 242.033C164.591 241.803 164.686 241.641 164.875 241.505C165.065 241.384 165.321 241.424 165.511 241.573C165.632 241.668 168.472 243.831 172.825 241.532C173.014 241.438 173.244 241.465 173.42 241.587C173.596 241.722 173.663 241.816 173.609 242.019C172.893 244.98 171.825 249.427 171.716 249.9H173.339C174.434 249.9 175.38 248.954 175.556 247.873C175.61 247.535 175.664 247.129 175.718 246.805C176.164 243.952 177.138 241.221 178.584 238.734C179.504 237.139 180.045 235.26 180.045 233.286C180.031 227.243 175.15 222.349 169.121 222.349Z" fill="white"/>
<path d="M169.986 218.186C169.986 218.713 169.566 219.132 169.039 219.132C168.512 219.132 168.093 218.713 168.093 218.186V211.562C168.093 211.034 168.512 210.615 169.039 210.615C169.566 210.615 169.986 211.034 169.986 211.562V218.186Z" fill="white"/>
<path d="M156.101 225.364L150.585 221.849C150.072 221.525 149.409 221.674 149.085 222.187C148.76 222.701 148.909 223.363 149.423 223.688L154.939 227.203C155.452 227.527 156.115 227.378 156.439 226.865C156.764 226.365 156.615 225.689 156.101 225.364Z" fill="white"/>
<path d="M154.425 232.286L147.881 232.042C147.273 232.015 146.772 232.488 146.745 233.097C146.718 233.705 147.191 234.205 147.8 234.232L154.343 234.476C154.952 234.503 155.452 234.03 155.479 233.421C155.506 232.813 155.033 232.299 154.425 232.286Z" fill="white"/>
<path d="M183.816 232.286L190.36 232.042C190.968 232.015 191.469 232.488 191.496 233.097C191.523 233.705 191.05 234.205 190.441 234.232L183.898 234.476C183.289 234.503 182.789 234.03 182.762 233.421C182.735 232.813 183.208 232.299 183.816 232.286Z" fill="white"/>
<path d="M189.157 222.187C188.833 221.674 188.157 221.525 187.656 221.849L182.14 225.364C181.627 225.689 181.478 226.365 181.802 226.865C182.127 227.378 182.803 227.527 183.303 227.203L188.819 223.688C189.333 223.363 189.482 222.687 189.157 222.187Z" fill="white"/>
<path d="M159.102 214.022C158.832 213.481 158.183 213.265 157.642 213.535C157.101 213.806 156.885 214.455 157.155 214.995L160.062 220.862C160.333 221.403 160.982 221.62 161.522 221.349C162.063 221.079 162.28 220.43 162.009 219.889L159.102 214.022Z" fill="white"/>
<path d="M180.599 213.535C180.058 213.265 179.409 213.495 179.139 214.022L176.232 219.889C175.962 220.43 176.192 221.079 176.719 221.349C177.26 221.619 177.909 221.39 178.179 220.862L181.086 214.995C181.37 214.455 181.14 213.792 180.599 213.535Z" fill="white"/>
<path opacity="0.4" d="M409.844 266.974C409.844 266.974 386.146 314.025 349.037 315.318C335.949 315.767 320.114 313.648 307.655 318.603C288.66 326.143 287.134 351.49 279.594 367.628C266.255 396.135 238.858 430.243 204.137 429.705C175.16 429.256 140.941 451.031 136.83 510.217L379.324 493.504C379.324 493.504 388.013 452.754 376.056 440.96C364.1 429.166 352.789 395.202 379.198 383.893C405.607 372.583 437.672 314.851 437.672 289.486C437.672 289.45 431.801 275.178 409.844 266.974Z" fill="url(#paint48_linear)"/>
<g opacity="0.5">
<rect x="250.884" y="380.73" width="13.3213" height="99.9" rx="6.66063" fill="white"/>
<rect x="274.196" y="411.81" width="13.3213" height="67.7099" rx="6.66064" fill="white"/>
<rect x="296.398" y="398.49" width="13.3213" height="77.7" rx="6.66063" fill="white"/>
<rect x="318.601" y="382.95" width="13.3212" height="91.0201" rx="6.66061" fill="white"/>
<rect x="340.803" y="380.73" width="13.3213" height="91.02" rx="6.66063" fill="white"/>
</g>
<path opacity="0.7" d="M213.499 346.5L213.499 344.5L208.671 344.5L212.085 347.914L213.499 346.5ZM256.499 328L256.499 326L255.483 326L254.884 326.821L256.499 328ZM288.999 328L288.999 330L289.565 330L290.047 329.703L288.999 328ZM329.945 304.463C330.201 303.389 329.537 302.31 328.462 302.054L310.952 297.885C309.877 297.629 308.799 298.293 308.543 299.368C308.287 300.442 308.951 301.521 310.026 301.776L325.59 305.482L321.884 321.047C321.629 322.122 322.292 323.2 323.367 323.456C324.441 323.712 325.52 323.048 325.776 321.974L329.945 304.463ZM242.999 346.5L242.999 348.5L244.016 348.5L244.615 347.679L242.999 346.5ZM216.413 346.586L214.913 345.086L212.085 347.914L213.585 349.414L216.413 346.586ZM256.499 330L288.999 330L288.999 326L256.499 326L256.499 330ZM290.047 329.703L329.047 305.703L326.951 302.297L287.951 326.297L290.047 329.703ZM213.499 348.5L242.999 348.5L242.999 344.5L213.499 344.5L213.499 348.5ZM244.615 347.679L258.115 329.179L254.884 326.821L241.384 345.321L244.615 347.679Z" fill="white"/>
<path d="M216.948 372.008C221.706 366.928 208.528 347.81 201.473 339.445C195.297 332.138 188.959 324.617 181.185 325.568C174.345 326.412 167.703 333.61 167.308 340.522C166.23 359.101 210.18 379.243 216.948 372.008Z" fill="url(#paint49_linear)"/>
<path d="M159.749 568.362C158.851 569.098 158.689 570.911 158.582 572.096C158.528 572.634 158.51 572.885 158.564 573.083C158.995 574.447 161.652 574.591 165.817 575.022C172.406 575.686 174.363 576.206 174.865 575.237C175.35 574.322 174.183 572.814 174.039 572.652C173.339 571.755 172.459 571.431 170.79 570.893C167.684 569.87 165.583 569.313 164.955 569.134C161.005 568.075 160.341 567.877 159.749 568.362Z" fill="url(#paint50_linear)"/>
<path d="M163.662 562.348L164.327 569.852C164.147 570.211 161.903 571.306 160.144 570.372L158.456 562.994L163.662 562.348Z" fill="url(#paint51_linear)"/>
<path d="M211.957 567.392C210.879 568.577 210.628 570.767 211.58 571.844C212.495 572.904 213.878 572.114 217.791 572.221C221.992 572.347 223.088 573.334 225.942 572.544C227.091 572.221 229.138 571.449 229.084 570.624C229.048 570.049 228.025 569.744 224.56 568.595C219.641 566.944 219.677 566.854 218.635 566.692C215.996 566.262 213.375 565.831 211.957 567.392Z" fill="url(#paint52_linear)"/>
<path d="M214.65 560.553L216.75 567.554C216.589 567.931 214.452 569.188 212.621 568.398L209.497 561.594L214.65 560.553Z" fill="url(#paint53_linear)"/>
<path d="M195.942 407.211C196.248 430.746 197.846 457.188 201.705 485.947C205.512 514.346 210.844 540.016 216.678 562.599C213.985 563.317 211.31 564.036 208.617 564.772C201.795 558.417 193.214 548.418 189.066 534.29C186.499 525.512 187.343 521.006 185.709 510.217C183.106 493.037 177.846 484.044 172.406 470.185C167.523 457.745 161.742 439.47 158.636 415.056C171.059 412.435 183.501 409.832 195.942 407.211Z" fill="url(#paint54_linear)"/>
<path d="M171.688 404.967C170.037 434.892 168.69 465.374 167.667 496.394C166.895 519.677 166.338 542.655 165.961 565.346C163.214 565.687 160.467 566.028 157.739 566.369C155.081 561.433 151.563 553.893 149.157 544.217C146.231 532.477 146.913 525.494 145.62 513.323C144.184 499.661 142.083 496.699 138.385 479.466C130.863 444.514 127.092 427.03 135.495 416.169C138.205 412.651 146.751 403.783 171.688 404.967Z" fill="url(#paint55_linear)"/>
<path d="M131.706 329.769C138.133 327.956 147.54 325.855 159.084 325.191C175.529 324.258 183.752 323.791 189.587 327.704C203.052 336.752 192.621 357.629 198.132 409.383C198.922 416.78 199.102 424.211 199.658 431.625C200.61 443.886 200.825 444.568 199.964 445.807C194.614 453.598 174.632 441.84 145.35 446.489C128.977 449.092 121.544 455.088 117.056 450.762C111.813 445.717 116.32 432.164 120.18 420.495C124.614 407.104 127.361 406.924 129.874 396.835C132.513 386.298 130.916 380.859 130.503 364.236C130.305 356.283 130.359 344.435 131.706 329.769Z" fill="url(#paint56_linear)"/>
<g opacity="0.3">
<path opacity="0.3" d="M171.527 426.922C163.879 426.33 158.906 430.656 152.299 427.281C143.232 422.65 140.324 408.27 140.916 398.092C141.796 382.618 150.629 378.543 149.103 368.544C148.277 363.14 144.417 355.96 130.557 348.618C130.378 354.793 130.414 360.053 130.504 364.235C130.916 380.859 132.496 386.298 129.875 396.835C127.362 406.924 124.615 407.104 120.18 420.495C116.321 432.164 111.832 445.717 117.057 450.762C121.545 455.088 128.978 449.092 145.351 446.489C170.575 442.486 188.887 450.654 196.894 447.997C187.236 432.002 178.457 427.461 171.527 426.922Z" fill="url(#paint57_linear)"/>
</g>
<path d="M142.155 330.828C136.697 326.34 125.71 331.42 122.765 332.785C106.392 340.36 91.6703 360.771 95.3148 382.349C95.8534 385.58 98.4028 400.713 111.221 408.055C122.783 414.679 138.402 412.974 150.916 403.603C152.621 402.077 154.327 400.57 156.05 399.044C157.738 397.231 159.408 395.4 161.095 393.586C158.456 391.378 153.95 388.219 147.648 386.172C139.336 383.48 133.268 388.309 129.408 384.647C126.751 382.115 126.733 377.663 127.397 374.953C128.726 369.495 133.537 367.97 137.541 364.092C146.966 355.009 148.69 336.195 142.155 330.828Z" fill="url(#paint58_linear)"/>
<path d="M220.682 401.251L147.433 400.156L166.912 409.563L220.879 406.026L220.682 401.251Z" fill="url(#paint59_linear)"/>
<path d="M144.848 402.113C144.848 403.477 145.709 404.716 147.002 405.183L170.413 414.356L170.521 408.001L147.451 400.174C146.14 399.797 144.848 400.767 144.848 402.113Z" fill="url(#paint60_linear)"/>
<path d="M156.14 397.769C155.691 397.661 158.331 392.401 160.395 393.012C162.46 393.622 172.603 399.492 173.519 401.916C174.435 404.339 174.435 404.339 174.435 404.339C174.435 404.339 170.018 404.68 167.271 403.765C164.542 402.849 159.785 398.595 156.14 397.769Z" fill="url(#paint61_linear)"/>
<path d="M172.46 363.356L167.289 410.371C167.11 411.986 169.39 414.41 171.006 414.338L246.75 409.689C247.989 409.635 249.03 408.719 249.246 407.48L258.761 362.081C259.048 360.43 256.068 358.724 254.398 358.778L175.027 360.986C173.699 361.022 172.603 362.045 172.46 363.356Z" fill="url(#paint62_linear)"/>
<path d="M174.183 364.72L169.013 411.735C168.833 413.351 170.144 414.751 171.777 414.679L248.473 411.053C249.712 410.999 250.754 410.083 250.969 408.845L258.797 363.23C259.084 361.579 257.773 360.071 256.104 360.125L176.732 362.351C175.422 362.405 174.327 363.41 174.183 364.72Z" fill="url(#paint63_linear)"/>
<path opacity="0.3" d="M219.228 400.031C212.531 397.194 214.901 391.773 206.984 385.041C196.553 376.137 185.907 379.997 182.19 373.104C181.023 370.949 180.485 367.61 182.495 362.207L176.75 362.369C175.422 362.405 174.327 363.41 174.183 364.738L169.013 411.753C168.833 413.369 170.144 414.769 171.777 414.697L248.473 411.071C249.712 411.017 250.753 410.102 250.969 408.863L252.046 402.562C249.712 401.269 246.929 400.085 243.698 399.438C232.459 397.141 226.93 403.298 219.228 400.031Z" fill="url(#paint64_linear)"/>
<path d="M252.226 405.183C252.334 404.842 252.1 404.483 251.741 404.465C250.269 404.393 246.84 404.357 244.955 405.524C242.495 407.032 239.318 409.778 241.993 411.161L244.488 412.453C244.596 412.507 244.722 412.525 244.847 412.507C245.727 412.309 249.479 411.484 249.874 411.268C250.251 411.089 251.669 406.852 252.226 405.183Z" fill="url(#paint65_linear)"/>
<path d="M157.8 296.344C157.861 304.637 156.947 311.192 156.062 315.674C155.056 320.826 154.355 322.168 153.409 323.235C152.037 324.851 149.933 326.223 138.041 329.181C131.577 330.766 130.754 330.735 130.601 331.376C129.9 334.516 147.524 345.157 165.698 342.596C176.827 341.01 186.951 334.669 186.341 331.345C185.701 327.991 174.602 329.79 171.278 323.723C168.96 319.485 171.552 313.509 174.602 308.539C171.705 302.99 160.758 301.893 157.8 296.344Z" fill="url(#paint66_linear)"/>
<path d="M178.474 299.606C181.097 296.13 181.249 290.032 178.23 286.16C175.639 282.837 171.522 282.38 169.083 282.075C161.978 281.251 152.983 284.209 149.873 290.764C148.013 294.636 152.038 302.716 152.647 304.149C153.349 305.795 154.629 306.344 155.819 307.594C157.465 309.301 160.057 312.045 164.265 316.619C164.6 315.277 165.088 313.6 165.881 311.802C166.186 311.1 167.406 308.387 169.266 306.131C172.986 301.649 175.974 302.929 178.474 299.606Z" fill="url(#paint67_linear)"/>
<path d="M158.258 312.808C158.258 312.808 162.923 320.491 172.254 319.881C180.578 319.333 181.798 300.643 176.492 296.679C174.724 295.368 171.156 294.819 168.259 295.612C166.552 296.1 165.973 296.801 163.167 297.533C160.575 298.203 159.844 297.929 159.051 298.569C158.075 299.392 157.343 301.405 158.99 306.862C157.404 305.246 155.483 304.637 154.142 305.277C153.928 305.368 153.349 305.765 153.044 306.344C151.885 308.509 153.837 311.222 158.258 312.808Z" fill="#FFC896"/>
<path d="M158.685 297.441C159.081 297.746 157.861 299.24 157.77 301.374C157.587 305.49 161.764 310.43 166.003 310.857C168.503 311.1 169.205 309.576 173.382 309.149C175.943 308.875 178.108 309.21 179.45 309.485C180.761 313.997 179.541 318.509 176.492 320.613C173.23 322.869 169.083 321.497 167.345 320.918C166.186 320.522 162.466 319.333 160.514 315.918C158.502 312.351 160.484 310.216 158.136 307.808C156.977 306.588 155.422 306.07 153.928 303.722C153.532 303.082 153.257 302.533 153.074 302.137C155.27 299.85 158.105 297.014 158.685 297.441Z" fill="url(#paint68_linear)"/>
<path d="M176.432 311.192C176.432 311.192 174.633 312.137 171.522 311.954C171.37 311.954 171.217 311.985 171.187 312.076C171.126 312.381 173.108 313.692 174.937 313.174C176.249 312.808 177.255 311.558 177.072 311.253C177.011 311.1 176.706 311.131 176.432 311.192Z" fill="white"/>
<defs>
<linearGradient id="paint0_linear" x1="432.719" y1="298.981" x2="234.333" y2="298.981" gradientUnits="userSpaceOnUse">
<stop offset="0.00359712" stop-color="#80DDCD"/>
<stop offset="1" stop-color="#63BAA4"/>
</linearGradient>
<linearGradient id="paint1_linear" x1="356.299" y1="309.485" x2="136.872" y2="322.742" gradientUnits="userSpaceOnUse">
<stop stop-color="#FFBB9E"/>
<stop offset="1" stop-color="#FF9070"/>
</linearGradient>
<linearGradient id="paint2_linear" x1="120.95" y1="528.966" x2="617.066" y2="528.966" gradientUnits="userSpaceOnUse">
<stop offset="0.494" stop-color="#EBEFF2"/>
<stop offset="1" stop-color="white"/>
</linearGradient>
<linearGradient id="paint3_linear" x1="411.429" y1="519.157" x2="581.44" y2="519.157" gradientUnits="userSpaceOnUse">
<stop stop-color="#FCB148"/>
<stop offset="0.0520724" stop-color="#FDBA46"/>
<stop offset="0.1424" stop-color="#FFC244"/>
<stop offset="0.3183" stop-color="#FFC444"/>
<stop offset="0.4849" stop-color="#FDB946"/>
<stop offset="0.7754" stop-color="#F99C4D"/>
<stop offset="0.8658" stop-color="#F8924F"/>
<stop offset="1" stop-color="#F8924F"/>
</linearGradient>
<linearGradient id="paint4_linear" x1="497.216" y1="500.007" x2="506.177" y2="575.032" gradientUnits="userSpaceOnUse">
<stop stop-color="#FFDB44"/>
<stop offset="1" stop-color="#FEEF06"/>
</linearGradient>
<linearGradient id="paint5_linear" x1="496.826" y1="496.662" x2="499.578" y2="519.703" gradientUnits="userSpaceOnUse">
<stop stop-color="#FFDB44"/>
<stop offset="1" stop-color="#FEEF06"/>
</linearGradient>
<linearGradient id="paint6_linear" x1="499.414" y1="517.287" x2="496.671" y2="494.328" gradientUnits="userSpaceOnUse">
<stop offset="0.00359712" stop-color="#F36F56"/>
<stop offset="0.3059" stop-color="#F99C4C"/>
<stop offset="0.545" stop-color="#FDB946"/>
<stop offset="0.6817" stop-color="#FFC444"/>
<stop offset="0.8038" stop-color="#FFC244"/>
<stop offset="0.8667" stop-color="#FEBA46"/>
<stop offset="0.916" stop-color="#FCAD49"/>
<stop offset="0.958" stop-color="#F99A4D"/>
<stop offset="0.9955" stop-color="#F58152"/>
<stop offset="1" stop-color="#F57E53"/>
</linearGradient>
<linearGradient id="paint7_linear" x1="390.888" y1="501.944" x2="560.898" y2="501.944" gradientUnits="userSpaceOnUse">
<stop stop-color="#FCB148"/>
<stop offset="0.0520724" stop-color="#FDBA46"/>
<stop offset="0.1424" stop-color="#FFC244"/>
<stop offset="0.3183" stop-color="#FFC444"/>
<stop offset="0.4849" stop-color="#FDB946"/>
<stop offset="0.7754" stop-color="#F99C4D"/>
<stop offset="0.8658" stop-color="#F8924F"/>
<stop offset="1" stop-color="#F8924F"/>
</linearGradient>
<linearGradient id="paint8_linear" x1="476.675" y1="482.794" x2="485.636" y2="557.819" gradientUnits="userSpaceOnUse">
<stop stop-color="#FFDB44"/>
<stop offset="1" stop-color="#FEEF06"/>
</linearGradient>
<linearGradient id="paint9_linear" x1="476.285" y1="479.449" x2="479.037" y2="502.49" gradientUnits="userSpaceOnUse">
<stop stop-color="#FFDB44"/>
<stop offset="1" stop-color="#FEEF06"/>
</linearGradient>
<linearGradient id="paint10_linear" x1="478.872" y1="500.074" x2="476.13" y2="477.115" gradientUnits="userSpaceOnUse">
<stop offset="0.00359712" stop-color="#F36F56"/>
<stop offset="0.3059" stop-color="#F99C4C"/>
<stop offset="0.545" stop-color="#FDB946"/>
<stop offset="0.6817" stop-color="#FFC444"/>
<stop offset="0.8038" stop-color="#FFC244"/>
<stop offset="0.8667" stop-color="#FEBA46"/>
<stop offset="0.916" stop-color="#FCAD49"/>
<stop offset="0.958" stop-color="#F99A4D"/>
<stop offset="0.9955" stop-color="#F58152"/>
<stop offset="1" stop-color="#F57E53"/>
</linearGradient>
<linearGradient id="paint11_linear" x1="408.612" y1="484.781" x2="578.622" y2="484.781" gradientUnits="userSpaceOnUse">
<stop stop-color="#FCB148"/>
<stop offset="0.0520724" stop-color="#FDBA46"/>
<stop offset="0.1424" stop-color="#FFC244"/>
<stop offset="0.3183" stop-color="#FFC444"/>
<stop offset="0.4849" stop-color="#FDB946"/>
<stop offset="0.7754" stop-color="#F99C4D"/>
<stop offset="0.8658" stop-color="#F8924F"/>
<stop offset="1" stop-color="#F8924F"/>
</linearGradient>
<linearGradient id="paint12_linear" x1="494.399" y1="465.632" x2="503.36" y2="540.655" gradientUnits="userSpaceOnUse">
<stop stop-color="#FFDB44"/>
<stop offset="1" stop-color="#FEEF06"/>
</linearGradient>
<linearGradient id="paint13_linear" x1="494.008" y1="462.286" x2="496.76" y2="485.327" gradientUnits="userSpaceOnUse">
<stop stop-color="#FFDB44"/>
<stop offset="1" stop-color="#FEEF06"/>
</linearGradient>
<linearGradient id="paint14_linear" x1="496.596" y1="482.912" x2="493.854" y2="459.952" gradientUnits="userSpaceOnUse">
<stop offset="0.00359712" stop-color="#F36F56"/>
<stop offset="0.3059" stop-color="#F99C4C"/>
<stop offset="0.545" stop-color="#FDB946"/>
<stop offset="0.6817" stop-color="#FFC444"/>
<stop offset="0.8038" stop-color="#FFC244"/>
<stop offset="0.8667" stop-color="#FEBA46"/>
<stop offset="0.916" stop-color="#FCAD49"/>
<stop offset="0.958" stop-color="#F99A4D"/>
<stop offset="0.9955" stop-color="#F58152"/>
<stop offset="1" stop-color="#F57E53"/>
</linearGradient>
<linearGradient id="paint15_linear" x1="419.368" y1="467.568" x2="589.379" y2="467.568" gradientUnits="userSpaceOnUse">
<stop stop-color="#FCB148"/>
<stop offset="0.0520724" stop-color="#FDBA46"/>
<stop offset="0.1424" stop-color="#FFC244"/>
<stop offset="0.3183" stop-color="#FFC444"/>
<stop offset="0.4849" stop-color="#FDB946"/>
<stop offset="0.7754" stop-color="#F99C4D"/>
<stop offset="0.8658" stop-color="#F8924F"/>
<stop offset="1" stop-color="#F8924F"/>
</linearGradient>
<linearGradient id="paint16_linear" x1="505.154" y1="448.419" x2="514.115" y2="523.443" gradientUnits="userSpaceOnUse">
<stop stop-color="#FFDB44"/>
<stop offset="1" stop-color="#FEEF06"/>
</linearGradient>
<linearGradient id="paint17_linear" x1="504.765" y1="445.073" x2="507.517" y2="468.114" gradientUnits="userSpaceOnUse">
<stop stop-color="#FFDB44"/>
<stop offset="1" stop-color="#FEEF06"/>
</linearGradient>
<linearGradient id="paint18_linear" x1="507.352" y1="465.699" x2="504.61" y2="442.739" gradientUnits="userSpaceOnUse">
<stop offset="0.00359712" stop-color="#F36F56"/>
<stop offset="0.3059" stop-color="#F99C4C"/>
<stop offset="0.545" stop-color="#FDB946"/>
<stop offset="0.6817" stop-color="#FFC444"/>
<stop offset="0.8038" stop-color="#FFC244"/>
<stop offset="0.8667" stop-color="#FEBA46"/>
<stop offset="0.916" stop-color="#FCAD49"/>
<stop offset="0.958" stop-color="#F99A4D"/>
<stop offset="0.9955" stop-color="#F58152"/>
<stop offset="1" stop-color="#F57E53"/>
</linearGradient>
<linearGradient id="paint19_linear" x1="411.429" y1="448.997" x2="581.44" y2="448.997" gradientUnits="userSpaceOnUse">
<stop stop-color="#FCB148"/>
<stop offset="0.0520724" stop-color="#FDBA46"/>
<stop offset="0.1424" stop-color="#FFC244"/>
<stop offset="0.3183" stop-color="#FFC444"/>
<stop offset="0.4849" stop-color="#FDB946"/>
<stop offset="0.7754" stop-color="#F99C4D"/>
<stop offset="0.8658" stop-color="#F8924F"/>
<stop offset="1" stop-color="#F8924F"/>
</linearGradient>
<linearGradient id="paint20_linear" x1="497.216" y1="429.848" x2="506.177" y2="504.873" gradientUnits="userSpaceOnUse">
<stop stop-color="#FFDB44"/>
<stop offset="1" stop-color="#FEEF06"/>
</linearGradient>
<linearGradient id="paint21_linear" x1="496.826" y1="426.502" x2="499.578" y2="449.543" gradientUnits="userSpaceOnUse">
<stop stop-color="#FFDB44"/>
<stop offset="1" stop-color="#FEEF06"/>
</linearGradient>
<linearGradient id="paint22_linear" x1="499.414" y1="447.128" x2="496.671" y2="424.168" gradientUnits="userSpaceOnUse">
<stop offset="0.00359712" stop-color="#F36F56"/>
<stop offset="0.3059" stop-color="#F99C4C"/>
<stop offset="0.545" stop-color="#FDB946"/>
<stop offset="0.6817" stop-color="#FFC444"/>
<stop offset="0.8038" stop-color="#FFC244"/>
<stop offset="0.8667" stop-color="#FEBA46"/>
<stop offset="0.916" stop-color="#FCAD49"/>
<stop offset="0.958" stop-color="#F99A4D"/>
<stop offset="0.9955" stop-color="#F58152"/>
<stop offset="1" stop-color="#F57E53"/>
</linearGradient>
<linearGradient id="paint23_linear" x1="390.888" y1="431.784" x2="560.898" y2="431.784" gradientUnits="userSpaceOnUse">
<stop stop-color="#FCB148"/>
<stop offset="0.0520724" stop-color="#FDBA46"/>
<stop offset="0.1424" stop-color="#FFC244"/>
<stop offset="0.3183" stop-color="#FFC444"/>
<stop offset="0.4849" stop-color="#FDB946"/>
<stop offset="0.7754" stop-color="#F99C4D"/>
<stop offset="0.8658" stop-color="#F8924F"/>
<stop offset="1" stop-color="#F8924F"/>
</linearGradient>
<linearGradient id="paint24_linear" x1="476.675" y1="412.635" x2="485.636" y2="487.66" gradientUnits="userSpaceOnUse">
<stop stop-color="#FFDB44"/>
<stop offset="1" stop-color="#FEEF06"/>
</linearGradient>
<linearGradient id="paint25_linear" x1="476.285" y1="409.289" x2="479.037" y2="432.33" gradientUnits="userSpaceOnUse">
<stop stop-color="#FFDB44"/>
<stop offset="1" stop-color="#FEEF06"/>
</linearGradient>
<linearGradient id="paint26_linear" x1="478.872" y1="429.915" x2="476.13" y2="406.955" gradientUnits="userSpaceOnUse">
<stop offset="0.00359712" stop-color="#F36F56"/>
<stop offset="0.3059" stop-color="#F99C4C"/>
<stop offset="0.545" stop-color="#FDB946"/>
<stop offset="0.6817" stop-color="#FFC444"/>
<stop offset="0.8038" stop-color="#FFC244"/>
<stop offset="0.8667" stop-color="#FEBA46"/>
<stop offset="0.916" stop-color="#FCAD49"/>
<stop offset="0.958" stop-color="#F99A4D"/>
<stop offset="0.9955" stop-color="#F58152"/>
<stop offset="1" stop-color="#F57E53"/>
</linearGradient>
<linearGradient id="paint27_linear" x1="408.612" y1="414.622" x2="578.622" y2="414.622" gradientUnits="userSpaceOnUse">
<stop stop-color="#FCB148"/>
<stop offset="0.0520724" stop-color="#FDBA46"/>
<stop offset="0.1424" stop-color="#FFC244"/>
<stop offset="0.3183" stop-color="#FFC444"/>
<stop offset="0.4849" stop-color="#FDB946"/>
<stop offset="0.7754" stop-color="#F99C4D"/>
<stop offset="0.8658" stop-color="#F8924F"/>
<stop offset="1" stop-color="#F8924F"/>
</linearGradient>
<linearGradient id="paint28_linear" x1="494.398" y1="395.472" x2="503.359" y2="470.497" gradientUnits="userSpaceOnUse">
<stop stop-color="#FFDB44"/>
<stop offset="1" stop-color="#FEEF06"/>
</linearGradient>
<linearGradient id="paint29_linear" x1="494.008" y1="392.127" x2="496.76" y2="415.168" gradientUnits="userSpaceOnUse">
<stop stop-color="#FFDB44"/>
<stop offset="1" stop-color="#FEEF06"/>
</linearGradient>
<linearGradient id="paint30_linear" x1="496.596" y1="412.752" x2="493.854" y2="389.793" gradientUnits="userSpaceOnUse">
<stop offset="0.00359712" stop-color="#F36F56"/>
<stop offset="0.3059" stop-color="#F99C4C"/>
<stop offset="0.545" stop-color="#FDB946"/>
<stop offset="0.6817" stop-color="#FFC444"/>
<stop offset="0.8038" stop-color="#FFC244"/>
<stop offset="0.8667" stop-color="#FEBA46"/>
<stop offset="0.916" stop-color="#FCAD49"/>
<stop offset="0.958" stop-color="#F99A4D"/>
<stop offset="0.9955" stop-color="#F58152"/>
<stop offset="1" stop-color="#F57E53"/>
</linearGradient>
<linearGradient id="paint31_linear" x1="399.393" y1="397.409" x2="569.403" y2="397.409" gradientUnits="userSpaceOnUse">
<stop stop-color="#FCB148"/>
<stop offset="0.0520724" stop-color="#FDBA46"/>
<stop offset="0.1424" stop-color="#FFC244"/>
<stop offset="0.3183" stop-color="#FFC444"/>
<stop offset="0.4849" stop-color="#FDB946"/>
<stop offset="0.7754" stop-color="#F99C4D"/>
<stop offset="0.8658" stop-color="#F8924F"/>
<stop offset="1" stop-color="#F8924F"/>
</linearGradient>
<linearGradient id="paint32_linear" x1="485.18" y1="378.259" x2="494.141" y2="453.284" gradientUnits="userSpaceOnUse">
<stop stop-color="#FFDB44"/>
<stop offset="1" stop-color="#FEEF06"/>
</linearGradient>
<linearGradient id="paint33_linear" x1="484.79" y1="374.914" x2="487.542" y2="397.955" gradientUnits="userSpaceOnUse">
<stop stop-color="#FFDB44"/>
<stop offset="1" stop-color="#FEEF06"/>
</linearGradient>
<linearGradient id="paint34_linear" x1="487.377" y1="395.539" x2="484.635" y2="372.579" gradientUnits="userSpaceOnUse">
<stop offset="0.00359712" stop-color="#F36F56"/>
<stop offset="0.3059" stop-color="#F99C4C"/>
<stop offset="0.545" stop-color="#FDB946"/>
<stop offset="0.6817" stop-color="#FFC444"/>
<stop offset="0.8038" stop-color="#FFC244"/>
<stop offset="0.8667" stop-color="#FEBA46"/>
<stop offset="0.916" stop-color="#FCAD49"/>
<stop offset="0.958" stop-color="#F99A4D"/>
<stop offset="0.9955" stop-color="#F58152"/>
<stop offset="1" stop-color="#F57E53"/>
</linearGradient>
<linearGradient id="paint35_linear" x1="433.495" y1="398.485" x2="473.535" y2="322.687" gradientUnits="userSpaceOnUse">
<stop stop-color="#FFC444"/>
<stop offset="0.9964" stop-color="#F36F56"/>
</linearGradient>
<linearGradient id="paint36_linear" x1="325.789" y1="341.589" x2="365.83" y2="265.791" gradientUnits="userSpaceOnUse">
<stop stop-color="#FFC444"/>
<stop offset="0.9964" stop-color="#F36F56"/>
</linearGradient>
<linearGradient id="paint37_linear" x1="495.221" y1="247.872" x2="477.804" y2="54.4551" gradientUnits="userSpaceOnUse">
<stop stop-color="#FFA98A"/>
<stop offset="0.9964" stop-color="#FF845D"/>
</linearGradient>
<linearGradient id="paint38_linear" x1="510.131" y1="246.53" x2="492.714" y2="53.1157" gradientUnits="userSpaceOnUse">
<stop stop-color="#FFB193"/>
<stop offset="0.9964" stop-color="#FFA182"/>
</linearGradient>
<linearGradient id="paint39_linear" x1="510.61" y1="222.151" x2="528.723" y2="153.506" gradientUnits="userSpaceOnUse">
<stop stop-color="#FFA06B"/>
<stop offset="0.9964" stop-color="#FF765C"/>
</linearGradient>
<linearGradient id="paint40_linear" x1="566.179" y1="164.259" x2="559.653" y2="91.792" gradientUnits="userSpaceOnUse">
<stop stop-color="#FFC444"/>
<stop offset="0.9964" stop-color="#F36F56"/>
</linearGradient>
<linearGradient id="paint41_linear" x1="535.713" y1="209.657" x2="465.929" y2="154.362" gradientUnits="userSpaceOnUse">
<stop offset="0.00359712" stop-color="#EBEFF2"/>
<stop offset="1" stop-color="white"/>
</linearGradient>
<linearGradient id="paint42_linear" x1="534.806" y1="210.801" x2="465.02" y2="155.505" gradientUnits="userSpaceOnUse">
<stop offset="0.00359712" stop-color="#EBEFF2"/>
<stop offset="1" stop-color="white"/>
</linearGradient>
<linearGradient id="paint43_linear" x1="507.645" y1="151.118" x2="496.85" y2="199.981" gradientUnits="userSpaceOnUse">
<stop offset="0.00359712" stop-color="#EBEFF2"/>
<stop offset="1" stop-color="white"/>
</linearGradient>
<linearGradient id="paint44_linear" x1="496.07" y1="250.447" x2="504.185" y2="133.46" gradientUnits="userSpaceOnUse">
<stop stop-color="#7CDAC9"/>
<stop offset="0.9964" stop-color="#4BAA96"/>
</linearGradient>
<linearGradient id="paint45_linear" x1="415.284" y1="293.823" x2="435.434" y2="263.955" gradientUnits="userSpaceOnUse">
<stop stop-color="#FFC444"/>
<stop offset="0.9964" stop-color="#F36F56"/>
</linearGradient>
<linearGradient id="paint46_linear" x1="453.208" y1="291.221" x2="405.376" y2="253.32" gradientUnits="userSpaceOnUse">
<stop stop-color="#93EDDB"/>
<stop offset="0.9964" stop-color="#5DB7A1"/>
</linearGradient>
<linearGradient id="paint47_linear" x1="501.055" y1="250.792" x2="509.169" y2="133.808" gradientUnits="userSpaceOnUse">
<stop stop-color="#63BAA4"/>
<stop offset="0.9964" stop-color="#63BAA4"/>
</linearGradient>
<linearGradient id="paint48_linear" x1="239.378" y1="533.753" x2="400.812" y2="173.74" gradientUnits="userSpaceOnUse">
<stop offset="0.00359712" stop-color="#74CEBC"/>
<stop offset="1" stop-color="#52BFA7"/>
</linearGradient>
<linearGradient id="paint49_linear" x1="204.733" y1="296.75" x2="149.983" y2="559.276" gradientUnits="userSpaceOnUse">
<stop stop-color="#FF9085"/>
<stop offset="1" stop-color="#FB6FBB"/>
</linearGradient>
<linearGradient id="paint50_linear" x1="174.911" y1="571.718" x2="158.517" y2="572.192" gradientUnits="userSpaceOnUse">
<stop stop-color="#444B8C"/>
<stop offset="0.9964" stop-color="#26264F"/>
</linearGradient>
<linearGradient id="paint51_linear" x1="164.326" y1="566.543" x2="158.447" y2="566.543" gradientUnits="userSpaceOnUse">
<stop stop-color="#FFC444"/>
<stop offset="0.9964" stop-color="#F36F56"/>
</linearGradient>
<linearGradient id="paint52_linear" x1="228.143" y1="567.204" x2="211.344" y2="571.823" gradientUnits="userSpaceOnUse">
<stop stop-color="#444B8C"/>
<stop offset="0.9964" stop-color="#26264F"/>
</linearGradient>
<linearGradient id="paint53_linear" x1="216.746" y1="564.602" x2="209.484" y2="564.602" gradientUnits="userSpaceOnUse">
<stop stop-color="#FFC444"/>
<stop offset="0.9964" stop-color="#F36F56"/>
</linearGradient>
<linearGradient id="paint54_linear" x1="222.42" y1="538.846" x2="175.956" y2="434.093" gradientUnits="userSpaceOnUse">
<stop stop-color="#75DBC6"/>
<stop offset="0.9964" stop-color="#53B59E"/>
</linearGradient>
<linearGradient id="paint55_linear" x1="199.598" y1="543.809" x2="140.65" y2="445.533" gradientUnits="userSpaceOnUse">
<stop stop-color="#86CFC1"/>
<stop offset="0.9964" stop-color="#5EBFA8"/>
</linearGradient>
<linearGradient id="paint56_linear" x1="185.771" y1="292.796" x2="131.021" y2="555.322" gradientUnits="userSpaceOnUse">
<stop stop-color="#FF9878"/>
<stop offset="1" stop-color="#E87858"/>
</linearGradient>
<linearGradient id="paint57_linear" x1="138.678" y1="517.316" x2="159.457" y2="418.606" gradientUnits="userSpaceOnUse">
<stop stop-color="#FFB18C"/>
<stop offset="1" stop-color="#FF8674"/>
</linearGradient>
<linearGradient id="paint58_linear" x1="148.258" y1="284.972" x2="119.485" y2="441.781" gradientUnits="userSpaceOnUse">
<stop stop-color="#FF9388"/>
<stop offset="1" stop-color="#FFA083"/>
</linearGradient>
<linearGradient id="paint59_linear" x1="194.944" y1="431.539" x2="186.084" y2="406.434" gradientUnits="userSpaceOnUse">
<stop stop-color="#311944"/>
<stop offset="1" stop-color="#893976"/>
</linearGradient>
<linearGradient id="paint60_linear" x1="156.234" y1="395.166" x2="159.482" y2="417.613" gradientUnits="userSpaceOnUse">
<stop stop-color="#5F4772"/>
<stop offset="1" stop-color="#A85995"/>
</linearGradient>
<linearGradient id="paint61_linear" x1="174.444" y1="398.69" x2="156.081" y2="398.69" gradientUnits="userSpaceOnUse">
<stop stop-color="#FFC444"/>
<stop offset="0.9964" stop-color="#F36F56"/>
</linearGradient>
<linearGradient id="paint62_linear" x1="220.614" y1="397.132" x2="203.34" y2="372.601" gradientUnits="userSpaceOnUse">
<stop stop-color="#444B8C"/>
<stop offset="0.9964" stop-color="#26264F"/>
</linearGradient>
<linearGradient id="paint63_linear" x1="187.475" y1="437.728" x2="225.277" y2="360.935" gradientUnits="userSpaceOnUse">
<stop stop-color="#B596CD"/>
<stop offset="1" stop-color="#A57399"/>
</linearGradient>
<linearGradient id="paint64_linear" x1="169.006" y1="388.442" x2="252.065" y2="388.442" gradientUnits="userSpaceOnUse">
<stop stop-color="#311944"/>
<stop offset="1" stop-color="#893976"/>
</linearGradient>
<linearGradient id="paint65_linear" x1="252.256" y1="408.475" x2="240.967" y2="408.475" gradientUnits="userSpaceOnUse">
<stop stop-color="#FFC444"/>
<stop offset="0.9964" stop-color="#F36F56"/>
</linearGradient>
<linearGradient id="paint66_linear" x1="186.433" y1="319.668" x2="130.638" y2="319.668" gradientUnits="userSpaceOnUse">
<stop stop-color="#FFB58B"/>
<stop offset="0.9964" stop-color="#FFD19B"/>
</linearGradient>
<linearGradient id="paint67_linear" x1="147.51" y1="338.436" x2="168.373" y2="284.864" gradientUnits="userSpaceOnUse">
<stop stop-color="#717072"/>
<stop offset="1" stop-color="#6C646D"/>
</linearGradient>
<linearGradient id="paint68_linear" x1="153.955" y1="340.974" x2="174.838" y2="287.347" gradientUnits="userSpaceOnUse">
<stop stop-color="#5E5764"/>
<stop offset="1" stop-color="#777777"/>
</linearGradient>
</defs>
</svg>
